<?xml version="1.0" encoding="utf-8"?>
<!-- Generator: Adobe Illustrator 22.0.1, SVG Export Plug-In . SVG Version: 6.00 Build 0)  -->
<svg version="1.2" baseProfile="tiny" id="Слой_1"
	 xmlns="http://www.w3.org/2000/svg"  x="0px" y="0px" viewBox="0 0 299.9 42"
	 xml:space="preserve">
<path fill="#FF806C" d="M11.1,34.2l-1.7,6.2C9.1,41.4,8.3,42,7,42H1.7C0.6,42,0,41.5,0,40.4c0-0.3,0.1-0.8,0.2-1.4L11.4,2
	c0.5-1.4,1.5-2,3.3-2h5.8c1.7,0,2.8,0.7,3.3,2.2l11.1,37.1c0.2,0.6,0.2,1,0.2,1.2c0,1-0.6,1.5-1.7,1.5h-5.1c-1.2,0-2-0.6-2.3-1.7
	l-1.7-6.2H11.1z M17.7,10.1L13,27.2h9.4L17.7,10.1z"/>
<path fill="#FF806C" d="M59,40.3l-5-11h-6.1v10.5c0,1.4-0.7,2.2-2.2,2.2h-4.5c-1.4,0-2.2-0.7-2.2-2.2V2.2c0-1.4,0.7-2.2,2.2-2.2H55
	c5.3,0,8.9,0.9,10.9,2.8c2,1.8,3,5.2,3,10v3.8c0,3.5-0.5,6.2-1.5,8.1c-1,1.9-2.7,3.1-5,3.9l5.3,10.8c0.3,0.5,0.4,0.9,0.4,1.2
	c0,1-0.6,1.5-1.9,1.5h-4.9C60.2,42,59.5,41.4,59,40.3z M47.9,21.8h7c1.9,0,3.2-0.4,4-1.2c0.7-0.8,1.1-2.2,1.1-4.2v-3.5
	c0-2-0.4-3.4-1.1-4.2c-0.7-0.8-2.1-1.2-4-1.2h-7V21.8z"/>
<path fill="#FF806C" d="M82,39.8V7.5h-8.6c-1.4,0-2.2-0.7-2.2-2.2V2.2C71.3,0.7,72,0,73.4,0h26c1.4,0,2.2,0.7,2.2,2.2v3.2
	c0,1.4-0.7,2.2-2.2,2.2h-8.6v32.3c0,1.4-0.7,2.2-2.2,2.2h-4.5C82.7,42,82,41.3,82,39.8z"/>
<path fill="#23232D" d="M107.6,0h14.8c5.5,0,9.2,1,11.1,2.9c1.9,1.9,2.9,5.6,2.9,10.9v14.4c0,5.3-1,9-2.9,10.9
	c-1.9,1.9-5.6,2.9-11.1,2.9h-14.8c-1.4,0-2.2-0.7-2.2-2.2V2.2C105.5,0.7,106.2,0,107.6,0z M114.3,34.5h7.6c2.2,0,3.7-0.4,4.4-1.3
	c0.8-0.9,1.1-2.6,1.1-5.2V13.9c0-2.6-0.4-4.3-1.1-5.2c-0.8-0.9-2.2-1.3-4.4-1.3h-7.6V34.5z"/>
<path fill="#23232D" d="M218.5,2.2v32.3h15c1.4,0,2.2,0.7,2.2,2.2v3.2c0,1.4-0.7,2.2-2.2,2.2h-21.7c-1.4,0-2.2-0.7-2.2-2.2V2.2
	c0-1.4,0.7-2.2,2.2-2.2h4.5C217.7,0,218.5,0.7,218.5,2.2z"/>
<path fill="#23232D" d="M263.9,42H242c-1.4,0-2.2-0.7-2.2-2.2V2.2c0-1.4,0.7-2.2,2.2-2.2h21.6c1.4,0,2.2,0.7,2.2,2.2v3.2
	c0,1.4-0.7,2.2-2.2,2.2h-14.9v9.6h12.7c1.4,0,2.2,0.7,2.2,2.2v3.2c0,1.4-0.7,2.2-2.2,2.2h-12.7v9.8h15.2c1.4,0,2.2,0.7,2.2,2.2v3.2
	C266,41.3,265.3,42,263.9,42z"/>
<path fill="#23232D" d="M290,40.3l-5-11H279v10.5c0,1.4-0.7,2.2-2.2,2.2h-4.5c-1.4,0-2.2-0.7-2.2-2.2V2.2c0-1.4,0.7-2.2,2.2-2.2H286
	c5.3,0,8.9,0.9,10.9,2.8c2,1.8,3,5.2,3,10v3.8c0,3.5-0.5,6.2-1.5,8.1c-1,1.9-2.7,3.1-5,3.9l5.3,10.8c0.3,0.5,0.4,0.9,0.4,1.2
	c0,1-0.6,1.5-1.9,1.5h-4.9C291.3,42,290.5,41.4,290,40.3z M279,21.8h7c1.9,0,3.2-0.4,4-1.2c0.7-0.8,1.1-2.2,1.1-4.2v-3.5
	c0-2-0.4-3.4-1.1-4.2c-0.7-0.8-2.1-1.2-4-1.2h-7V21.8z"/>
<path fill="#23232D" d="M181.6,34.2l-1.7,6.2c-0.3,1.1-1.1,1.7-2.4,1.7h-5.3c-1.2,0-1.7-0.5-1.7-1.6c0-0.3,0.1-0.8,0.2-1.4l11.1-37
	c0.5-1.4,1.5-2,3.3-2h5.8c1.7,0,2.8,0.7,3.3,2.2l11.1,37.1c0.2,0.6,0.2,1,0.2,1.2c0,1-0.6,1.5-1.7,1.5h-5.1c-1.2,0-2-0.6-2.3-1.7
	l-1.7-6.2H181.6z M188.2,10.1l-4.7,17.1h9.4L188.2,10.1z"/>
<path fill="#23232D" d="M164.4,42h-21.9c-1.4,0-2.2-0.7-2.2-2.2V2.2c0-1.4,0.7-2.2,2.2-2.2h21.6c1.4,0,2.2,0.7,2.2,2.2v3.2
	c0,1.4-0.7,2.2-2.2,2.2h-14.9v9.6h12.7c1.4,0,2.2,0.7,2.2,2.2v3.2c0,1.4-0.7,2.2-2.2,2.2h-12.7v9.8h15.2c1.4,0,2.2,0.7,2.2,2.2v3.2
	C166.5,41.3,165.8,42,164.4,42z"/>
</svg>
