<?xml version="1.0" encoding="utf-8"?>
<!-- Generator: Adobe Illustrator 22.0.1, SVG Export Plug-In . SVG Version: 6.00 Build 0)  -->
<svg version="1.2" baseProfile="tiny" id="Слой_1"
	 xmlns="http://www.w3.org/2000/svg" xmlns:xlink="http://www.w3.org/1999/xlink" x="0px" y="0px" viewBox="0 0 64 64"
	 xml:space="preserve">
<rect fill="#FF806C" width="64" height="64"/>
<path fill="#FFFFFF" d="M25.8,44.7l-1.6,6c-0.3,1.1-1.1,1.6-2.3,1.6h-5.1c-1.1,0-1.7-0.5-1.7-1.5c0-0.3,0.1-0.8,0.2-1.3l10.8-35.9
	c0.4-1.3,1.5-2,3.1-2h5.6c1.7,0,2.7,0.7,3.1,2.1l10.8,35.9c0.2,0.5,0.2,0.9,0.2,1.2c0,1-0.5,1.4-1.6,1.4h-4.9
	c-1.2,0-1.9-0.5-2.2-1.6l-1.6-6H25.8z M32.2,21.5L27.6,38h9.1L32.2,21.5z"/>
</svg>
