<?xml version="1.0" encoding="utf-8"?>
<!-- Generator: Adobe Illustrator 17.0.0, SVG Export Plug-In . SVG Version: 6.00 Build 0)  -->
<!DOCTYPE svg PUBLIC "-//W3C//DTD SVG 1.1//EN" "http://www.w3.org/Graphics/SVG/1.1/DTD/svg11.dtd">
<svg version="1.1" id="Layer_1" xmlns="http://www.w3.org/2000/svg" xmlns:xlink="http://www.w3.org/1999/xlink" x="0px" y="0px"
	 width="125px" height="68px" viewBox="0 0 125 68" enable-background="new 0 0 125 68" xml:space="preserve">
<path id="XMLID_1_" fill-rule="evenodd" clip-rule="evenodd" fill="#FFFFFF" d="M58.068,42.465c0-2.662-0.01-5.323,0.01-7.985
	c0.004-0.449-0.123-0.589-0.572-0.571c-0.829,0.034-1.661-0.004-2.491,0.016c-0.336,0.009-0.46-0.085-0.456-0.441
	c0.017-1.661,0.015-3.322,0.002-4.983c-0.003-0.319,0.093-0.425,0.416-0.417c0.849,0.02,1.7-0.024,2.548,0.018
	c0.491,0.024,0.593-0.15,0.583-0.606c-0.03-1.264-0.03-2.53-0.002-3.794c0.034-1.544,0.448-2.985,1.368-4.24
	c1.164-1.59,2.818-2.316,4.727-2.402c1.96-0.087,3.925-0.039,5.888-0.06c0.274-0.003,0.355,0.095,0.354,0.361
	c-0.009,1.68-0.011,3.36,0.001,5.04c0.003,0.299-0.095,0.39-0.388,0.386c-0.944-0.015-1.888-0.007-2.831-0.005
	c-1.256,0.004-2.008,0.65-2.087,1.894c-0.063,0.997-0.017,2-0.04,3c-0.009,0.356,0.203,0.332,0.439,0.331
	c1.434-0.002,2.869,0.014,4.304-0.01c0.421-0.007,0.56,0.09,0.512,0.533c-0.181,1.669-0.336,3.341-0.479,5.014
	c-0.033,0.378-0.205,0.449-0.544,0.444c-1.132-0.017-2.264-0.012-3.397-0.005c-0.813,0.005-0.734-0.119-0.734,0.71
	c-0.004,5.21-0.011,10.42,0.011,15.629c0.002,0.55-0.138,0.687-0.683,0.677c-1.944-0.036-3.889-0.038-5.832,0.001
	c-0.548,0.011-0.638-0.175-0.634-0.664C58.079,47.712,58.068,45.089,58.068,42.465z"/>
</svg>
