<?xml version="1.0" encoding="utf-8"?>
<!-- Generator: Adobe Illustrator 17.0.0, SVG Export Plug-In . SVG Version: 6.00 Build 0)  -->
<!DOCTYPE svg PUBLIC "-//W3C//DTD SVG 1.1//EN" "http://www.w3.org/Graphics/SVG/1.1/DTD/svg11.dtd">
<svg version="1.1" id="Layer_1" xmlns="http://www.w3.org/2000/svg" xmlns:xlink="http://www.w3.org/1999/xlink" x="0px" y="0px"
	 width="125px" height="68px" viewBox="0 0 125 68" enable-background="new 0 0 125 68" xml:space="preserve">
<g>
	<path fill="#FFFFFF" d="M42.052,34.017c-0.254-6.702,5.616-12.896,12.325-12.977c3.419-0.292,6.746,1.036,9.334,3.202
		c-1.061,1.167-2.141,2.321-3.295,3.401c-2.278-1.384-5.021-2.439-7.683-1.502c-4.295,1.223-6.895,6.293-5.306,10.494
		c1.316,4.388,6.653,6.796,10.836,4.952c2.166-0.776,3.593-2.774,4.22-4.921c-2.482-0.05-4.965-0.019-7.447-0.087
		c-0.006-1.477-0.012-2.948-0.006-4.425c4.139-0.006,8.285-0.019,12.431,0.019c0.254,3.618-0.279,7.491-2.631,10.395
		c-3.221,4.146-9.172,5.362-14.013,3.736C45.677,44.616,41.941,39.441,42.052,34.017z"/>
	<path fill="#FFFFFF" d="M75.527,28.431c1.229,0,2.458,0,3.693,0c0.006,1.235,0.019,2.476,0.025,3.711
		c1.235,0.012,2.476,0.019,3.711,0.025c0,1.235,0,2.464,0,3.699c-1.235,0.006-2.476,0.012-3.711,0.019
		c-0.012,1.241-0.019,2.476-0.025,3.717c-1.235-0.006-2.47,0-3.699,0c-0.012-1.241-0.012-2.476-0.025-3.711
		c-1.235-0.012-2.476-0.019-3.711-0.025c0-1.235,0-2.464,0-3.699c1.235-0.006,2.47-0.012,3.711-0.025
		C75.502,30.907,75.515,29.666,75.527,28.431z"/>
</g>
</svg>
