<?xml version="1.0" encoding="utf-8"?>
<!-- Generator: Adobe Illustrator 17.0.0, SVG Export Plug-In . SVG Version: 6.00 Build 0)  -->
<!DOCTYPE svg PUBLIC "-//W3C//DTD SVG 1.1//EN" "http://www.w3.org/Graphics/SVG/1.1/DTD/svg11.dtd">
<svg version="1.1" id="Layer_1" xmlns="http://www.w3.org/2000/svg" xmlns:xlink="http://www.w3.org/1999/xlink" x="0px" y="0px"
	 width="125px" height="68px" viewBox="0 0 125 68" enable-background="new 0 0 125 68" xml:space="preserve">
<path fill-rule="evenodd" clip-rule="evenodd" fill="#FFFFFF" d="M61.751,47.163h2.782c0,0,0.84-0.093,1.27-0.555
	c0.395-0.425,0.382-1.222,0.382-1.222s-0.054-3.732,1.678-4.282c1.708-0.542,3.901,3.607,6.225,5.203
	c1.757,1.207,3.093,0.943,3.093,0.943l6.215-0.087c0,0,3.251-0.201,1.709-2.757c-0.126-0.209-0.898-1.891-4.621-5.346
	c-3.897-3.617-3.375-3.032,1.319-9.288c2.859-3.81,4.001-6.136,3.644-7.132c-0.34-0.949-2.443-0.698-2.443-0.698l-6.997,0.043
	c0,0-0.519-0.071-0.904,0.159c-0.376,0.225-0.617,0.751-0.617,0.751s-1.108,2.948-2.584,5.456c-3.116,5.291-4.362,5.571-4.871,5.242
	c-1.185-0.766-0.889-3.076-0.889-4.717c0-5.128,0.778-7.265-1.515-7.819c-0.76-0.184-1.321-0.305-3.266-0.325
	c-2.497-0.026-4.61,0.008-5.806,0.594c-0.796,0.39-1.41,1.258-1.036,1.308c0.463,0.062,1.51,0.283,2.065,1.038
	c0.717,0.976,0.692,3.166,0.692,3.166s0.412,6.036-0.962,6.785c-0.943,0.514-2.237-0.536-5.015-5.336
	c-1.423-2.459-2.498-5.177-2.498-5.177s-0.207-0.508-0.577-0.78c-0.448-0.329-1.075-0.434-1.075-0.434l-6.65,0.043
	c0,0-0.998,0.028-1.365,0.462c-0.326,0.386-0.026,1.185-0.026,1.185s5.206,12.179,11.1,18.317
	C55.613,47.533,61.751,47.163,61.751,47.163L61.751,47.163z"/>
<line fill="none" stroke="#FFFFFF" stroke-miterlimit="10" x1="124.75" y1="0" x2="124.75" y2="68"/>
</svg>
