<?xml version="1.0" encoding="utf-8"?>
<!-- Generator: Adobe Illustrator 22.0.1, SVG Export Plug-In . SVG Version: 6.00 Build 0)  -->
<svg version="1.2" baseProfile="tiny" id="Слой_1"
	 xmlns="http://www.w3.org/2000/svg"  x="0px" y="0px" viewBox="0 0 445 68"
	 xml:space="preserve">
<g>
	<path fill="#FF806C" d="M45.1,47.2l-1.7,6.2C43.1,54.4,42.3,55,41,55h-5.3c-1.2,0-1.7-0.5-1.7-1.6c0-0.3,0.1-0.8,0.2-1.4l11.1-37
		c0.5-1.4,1.5-2,3.3-2h5.8c1.7,0,2.8,0.7,3.3,2.2l11.1,37.1c0.2,0.6,0.2,1,0.2,1.2c0,1-0.6,1.5-1.7,1.5h-5.1c-1.2,0-2-0.6-2.3-1.7
		l-1.7-6.2H45.1z M51.7,23.1L47,40.2h9.4L51.7,23.1z"/>
	<path fill="#FF806C" d="M93,53.3l-5-11h-6.1v10.5c0,1.4-0.7,2.2-2.2,2.2h-4.5c-1.4,0-2.2-0.7-2.2-2.2V15.2c0-1.4,0.7-2.2,2.2-2.2
		H89c5.3,0,8.9,0.9,10.9,2.8c2,1.8,3,5.2,3,10v3.8c0,3.5-0.5,6.2-1.5,8.1c-1,1.9-2.7,3.1-5,3.9l5.3,10.8c0.3,0.5,0.4,0.9,0.4,1.2
		c0,1-0.6,1.5-1.9,1.5h-4.9C94.2,55,93.5,54.4,93,53.3z M81.9,34.8h7c1.9,0,3.2-0.4,4-1.2c0.7-0.8,1.1-2.2,1.1-4.2v-3.5
		c0-2-0.4-3.4-1.1-4.2c-0.7-0.8-2.1-1.2-4-1.2h-7V34.8z"/>
	<path fill="#FF806C" d="M116,52.8V20.5h-8.6c-1.4,0-2.2-0.7-2.2-2.2v-3.2c0-1.4,0.7-2.2,2.2-2.2h26c1.4,0,2.2,0.7,2.2,2.2v3.2
		c0,1.4-0.7,2.2-2.2,2.2h-8.6v32.3c0,1.4-0.7,2.2-2.2,2.2h-4.5C116.7,55,116,54.3,116,52.8z"/>
	<path fill="#F5F5F0" d="M141.6,13h14.8c5.5,0,9.2,1,11.1,2.9c1.9,1.9,2.9,5.6,2.9,10.9v14.4c0,5.3-1,9-2.9,10.9
		c-1.9,1.9-5.6,2.9-11.1,2.9h-14.8c-1.4,0-2.2-0.7-2.2-2.2V15.2C139.5,13.7,140.2,13,141.6,13z M148.3,47.5h7.6
		c2.2,0,3.7-0.4,4.4-1.3c0.8-0.9,1.1-2.6,1.1-5.2V26.9c0-2.6-0.4-4.3-1.1-5.2c-0.8-0.9-2.2-1.3-4.4-1.3h-7.6V47.5z"/>
	<path fill="#F5F5F0" d="M252.5,15.2v32.3h15c1.4,0,2.2,0.7,2.2,2.2v3.2c0,1.4-0.7,2.2-2.2,2.2h-21.7c-1.4,0-2.2-0.7-2.2-2.2V15.2
		c0-1.4,0.7-2.2,2.2-2.2h4.5C251.7,13,252.5,13.7,252.5,15.2z"/>
	<path fill="#F5F5F0" d="M297.9,55H276c-1.4,0-2.2-0.7-2.2-2.2V15.2c0-1.4,0.7-2.2,2.2-2.2h21.6c1.4,0,2.2,0.7,2.2,2.2v3.2
		c0,1.4-0.7,2.2-2.2,2.2h-14.9v9.6h12.7c1.4,0,2.2,0.7,2.2,2.2v3.2c0,1.4-0.7,2.2-2.2,2.2h-12.7v9.8h15.2c1.4,0,2.2,0.7,2.2,2.2v3.2
		C300,54.3,299.3,55,297.9,55z"/>
	<path fill="#F5F5F0" d="M324.1,53.3l-5-11H313v10.5c0,1.4-0.7,2.2-2.2,2.2h-4.5c-1.4,0-2.2-0.7-2.2-2.2V15.2c0-1.4,0.7-2.2,2.2-2.2
		H320c5.3,0,8.9,0.9,10.9,2.8c2,1.8,3,5.2,3,10v3.8c0,3.5-0.5,6.2-1.5,8.1c-1,1.9-2.7,3.1-5,3.9l5.3,10.8c0.3,0.5,0.4,0.9,0.4,1.2
		c0,1-0.6,1.5-1.9,1.5h-4.9C325.3,55,324.5,54.4,324.1,53.3z M313,34.8h7c1.9,0,3.2-0.4,4-1.2c0.7-0.8,1.1-2.2,1.1-4.2v-3.5
		c0-2-0.4-3.4-1.1-4.2c-0.7-0.8-2.1-1.2-4-1.2h-7V34.8z"/>
	<path fill="#F5F5F0" d="M215.6,47.2l-1.7,6.2c-0.3,1.1-1.1,1.7-2.4,1.7h-5.3c-1.2,0-1.7-0.5-1.7-1.6c0-0.3,0.1-0.8,0.2-1.4l11.1-37
		c0.5-1.4,1.5-2,3.3-2h5.8c1.7,0,2.8,0.7,3.3,2.2l11.1,37.1c0.2,0.6,0.2,1,0.2,1.2c0,1-0.6,1.5-1.7,1.5h-5.1c-1.2,0-2-0.6-2.3-1.7
		l-1.7-6.2H215.6z M222.3,23.1l-4.7,17.1h9.4L222.3,23.1z"/>
	<path fill="#F5F5F0" d="M198.4,55h-21.9c-1.4,0-2.2-0.7-2.2-2.2V15.2c0-1.4,0.7-2.2,2.2-2.2h21.6c1.4,0,2.2,0.7,2.2,2.2v3.2
		c0,1.4-0.7,2.2-2.2,2.2h-14.9v9.6h12.7c1.4,0,2.2,0.7,2.2,2.2v3.2c0,1.4-0.7,2.2-2.2,2.2h-12.7v9.8h15.2c1.4,0,2.2,0.7,2.2,2.2v3.2
		C200.6,54.3,199.8,55,198.4,55z"/>
	<g>
		<path fill="#FF806C" d="M383.7,45.9l-3.1-6.8h-3.8v6.5c0,0.9-0.4,1.3-1.3,1.3h-2.8c-0.9,0-1.3-0.4-1.3-1.3V22.3
			c0-0.9,0.4-1.3,1.3-1.3h8.5c3.3,0,5.5,0.6,6.7,1.7s1.8,3.2,1.8,6.2v2.4c0,2.2-0.3,3.8-0.9,5c-0.6,1.1-1.6,1.9-3.1,2.4l3.3,6.7
			c0.2,0.3,0.3,0.5,0.3,0.7c0,0.6-0.4,0.9-1.1,0.9h-3C384.5,47,384,46.6,383.7,45.9z M376.9,34.5h4.3c1.2,0,2-0.2,2.5-0.7
			c0.5-0.5,0.7-1.4,0.7-2.6V29c0-1.2-0.2-2.1-0.7-2.6c-0.5-0.5-1.3-0.7-2.5-0.7h-4.3V34.5z"/>
		<path fill="#FF806C" d="M409.6,22.8c-1.2-1.2-3.5-1.8-6.8-1.8h-0.9h-0.9c-3.4,0-5.7,0.6-6.8,1.8c-1.2,1.2-1.8,3.4-1.8,6.7v8.9
			c0,3.3,0.6,5.6,1.8,6.7c1.2,1.2,3.5,1.8,6.8,1.8h0.9h0.9c3.4,0,5.7-0.6,6.8-1.8c1.2-1.2,1.8-3.4,1.8-6.7v-8.9
			C411.4,26.3,410.8,24,409.6,22.8z M405.9,38.4c0,1.6-0.2,2.7-0.7,3.2c-0.5,0.5-1.4,0.8-2.7,0.8h-0.6v0h-0.6
			c-1.4,0-2.3-0.3-2.7-0.8c-0.5-0.5-0.7-1.6-0.7-3.2v-8.7c0-1.6,0.2-2.7,0.7-3.2c0.5-0.5,1.4-0.8,2.7-0.8h0.6v0h0.6
			c1.4,0,2.3,0.3,2.7,0.8c0.5,0.5,0.7,1.6,0.7,3.2V38.4z"/>
		<path fill="#FF806C" d="M367.2,22.7c-1.2-1.1-3.5-1.7-6.7-1.7h-4.4h-4.1c0,0-0.1,0-0.1,0c-0.6,0-1,0.3-1.2,0.7c0,0,0,0,0,0.1
			c0,0,0,0.1,0,0.1s0,0.1,0,0.1c0,0.1,0,0.1,0,0.2c0,0,0,0.1,0,0.1v10.9V41v4.6c0,0.9,0.4,1.3,1.3,1.3h2.8c0.9,0,1.3-0.4,1.3-1.3v-1
			v-2.3h4.4c3.3,0,5.5-0.6,6.7-1.7c1.2-1.1,1.8-3.2,1.8-6.2v-1.2v-4.4C369,25.9,368.4,23.9,367.2,22.7z M363.5,33.3v1.1
			c0,1.2-0.2,2.1-0.7,2.6c-0.5,0.5-1.3,0.7-2.5,0.7h-4.3v-4.4v-7.6h4.3c1.2,0,2,0.2,2.5,0.7c0.5,0.5,0.7,1.4,0.7,2.6V33.3z"/>
	</g>
	<circle fill="#FF806C" cx="342.3" cy="34" r="5.1"/>
</g>
</svg>
