<svg id="Layer_1" data-name="Layer 1" xmlns="http://www.w3.org/2000/svg" viewBox="0 0 280.54 42">
  <defs>
    <style>
      .cls-1 {
        fill: #ff806c;
      }

      .cls-2 {
        fill: #fff;
      }
    </style>
  </defs>
  <title>artdiller-main-logo</title>
  <g>
    <g>
      <path class="cls-1" d="M833,351.16l-1.67,6.15a2.25,2.25,0,0,1-2.42,1.68H823.6a1.46,1.46,0,0,1-1.73-1.55,5.51,5.51,0,0,1,.24-1.37l11.13-37q0.68-2,3.25-2h5.77a3,3,0,0,1,3.25,2.17l11.13,37.09a5.08,5.08,0,0,1,.24,1.25,1.4,1.4,0,0,1-1.67,1.49h-5.06a2.16,2.16,0,0,1-2.32-1.67l-1.68-6.16H833Zm6.61-24.05-4.73,17.11h9.4Z" transform="translate(-821.87 -317)"/>
      <path class="cls-1" d="M881,357.32l-5-11h-6.1v10.53a1.9,1.9,0,0,1-2.15,2.15h-4.55a1.9,1.9,0,0,1-2.15-2.15V319.15a1.9,1.9,0,0,1,2.15-2.15H877q8,0,10.92,2.76t3,10v3.83q0,5.27-1.48,8.06a8,8,0,0,1-5,3.86l5.28,10.82a2.49,2.49,0,0,1,.42,1.19q0,1.48-1.86,1.48h-4.91A2.42,2.42,0,0,1,881,357.32Zm-11.07-18.55h7q2.87,0,4-1.2t1.11-4.19v-3.47q0-3-1.11-4.19t-4-1.2h-7v14.24Z" transform="translate(-821.87 -317)"/>
      <path class="cls-1" d="M904,356.85V324.54h-8.56a1.9,1.9,0,0,1-2.15-2.15v-3.23a1.9,1.9,0,0,1,2.15-2.15h26a1.9,1.9,0,0,1,2.15,2.15v3.23a1.9,1.9,0,0,1-2.15,2.15h-8.56v32.31a1.9,1.9,0,0,1-2.15,2.15h-4.55A1.9,1.9,0,0,1,904,356.85Z" transform="translate(-821.87 -317)"/>
    </g>
    <g>
      <path class="cls-2" d="M930.28,317h14.78q8.2,0,11.07,2.9T959,330.82v14.36q0,8-2.87,10.92T945.06,359H930.28a1.9,1.9,0,0,1-2.15-2.15V319.15A1.9,1.9,0,0,1,930.28,317Zm6.7,34.52h7.6q3.29,0,4.43-1.29t1.14-5.18V330.94q0-3.89-1.14-5.18t-4.43-1.29H937v27Z" transform="translate(-821.87 -317)"/>
      <path class="cls-2" d="M974.08,319.15v37.69a1.9,1.9,0,0,1-2.15,2.15h-4.55a1.9,1.9,0,0,1-2.15-2.15V319.15a1.9,1.9,0,0,1,2.15-2.15h4.55A1.9,1.9,0,0,1,974.08,319.15Z" transform="translate(-821.87 -317)"/>
      <path class="cls-2" d="M990.11,319.15v32.31h15a1.9,1.9,0,0,1,2.15,2.15v3.23a1.9,1.9,0,0,1-2.15,2.15H983.41a1.9,1.9,0,0,1-2.15-2.15V319.15a1.9,1.9,0,0,1,2.15-2.15H988A1.9,1.9,0,0,1,990.11,319.15Z" transform="translate(-821.87 -317)"/>
      <path class="cls-2" d="M1020.21,319.15v32.31h15a1.9,1.9,0,0,1,2.15,2.15v3.23a1.9,1.9,0,0,1-2.15,2.15h-21.72a1.9,1.9,0,0,1-2.15-2.15V319.15a1.9,1.9,0,0,1,2.15-2.15h4.55A1.9,1.9,0,0,1,1020.21,319.15Z" transform="translate(-821.87 -317)"/>
      <path class="cls-2" d="M1065.5,359h-21.9a1.9,1.9,0,0,1-2.15-2.15V319.15a1.9,1.9,0,0,1,2.15-2.15h21.6a1.9,1.9,0,0,1,2.15,2.15v3.23a1.9,1.9,0,0,1-2.15,2.15h-14.9v9.63H1063a1.9,1.9,0,0,1,2.15,2.15v3.23a1.9,1.9,0,0,1-2.15,2.15H1050.3v9.75h15.2a1.9,1.9,0,0,1,2.15,2.15v3.23A1.9,1.9,0,0,1,1065.5,359Z" transform="translate(-821.87 -317)"/>
      <path class="cls-2" d="M1092.54,357.32l-5-11h-6.1v10.53a1.9,1.9,0,0,1-2.15,2.15h-4.55a1.9,1.9,0,0,1-2.15-2.15V319.15a1.9,1.9,0,0,1,2.15-2.15h13.76q8,0,10.92,2.76t3,10v3.83q0,5.27-1.48,8.06a8,8,0,0,1-5,3.86l5.28,10.82a2.5,2.5,0,0,1,.42,1.19q0,1.48-1.85,1.48h-4.91A2.42,2.42,0,0,1,1092.54,357.32Zm-11.07-18.55h7q2.87,0,4-1.2t1.11-4.19v-3.47q0-3-1.11-4.19t-4-1.2h-7v14.24Z" transform="translate(-821.87 -317)"/>
    </g>
  </g>
</svg>
