<?xml version="1.0" encoding="utf-8"?>
<!-- Generator: Adobe Illustrator 22.0.1, SVG Export Plug-In . SVG Version: 6.00 Build 0)  -->
<svg version="1.2" baseProfile="tiny" id="Слой_1"
	 xmlns="http://www.w3.org/2000/svg"  x="0px" y="0px" viewBox="0 0 395 144"
	 xml:space="preserve">
<g>
	<path fill="#FF806C" d="M15.7,89.2l-2.2,8.1c-0.4,1.5-1.5,2.2-3.2,2.2H3.4c-1.5,0-2.3-0.7-2.3-2c0-0.4,0.1-1,0.3-1.8L16,47.2
		c0.6-1.8,2-2.7,4.3-2.7h7.6c2.3,0,3.7,0.9,4.3,2.8l14.6,48.6c0.2,0.7,0.3,1.3,0.3,1.6c0,1.3-0.7,1.9-2.2,1.9h-6.6
		c-1.6,0-2.6-0.7-3-2.2l-2.2-8.1H15.7z M24.3,57.7l-6.2,22.4h12.3L24.3,57.7z"/>
	<path fill="#FF806C" d="M78.4,97.3l-6.5-14.4h-8v13.8c0,1.9-0.9,2.8-2.8,2.8h-6c-1.9,0-2.8-0.9-2.8-2.8V47.3c0-1.9,0.9-2.8,2.8-2.8
		h18c6.9,0,11.7,1.2,14.3,3.6c2.6,2.4,3.9,6.8,3.9,13.1v5c0,4.6-0.6,8.1-1.9,10.6c-1.3,2.4-3.5,4.1-6.5,5.1L89.7,96
		c0.4,0.6,0.5,1.1,0.5,1.6c0,1.3-0.8,1.9-2.4,1.9h-6.4C80,99.5,79,98.8,78.4,97.3z M63.9,73H73c2.5,0,4.2-0.5,5.2-1.6
		c1-1,1.4-2.9,1.4-5.5v-4.5c0-2.6-0.5-4.4-1.4-5.5c-1-1-2.7-1.6-5.2-1.6h-9.2V73z"/>
	<path fill="#FF806C" d="M108.5,96.7V54.4H97.3c-1.9,0-2.8-0.9-2.8-2.8v-4.2c0-1.9,0.9-2.8,2.8-2.8h34c1.9,0,2.8,0.9,2.8,2.8v4.2
		c0,1.9-0.9,2.8-2.8,2.8h-11.2v42.3c0,1.9-0.9,2.8-2.8,2.8h-6C109.4,99.5,108.5,98.6,108.5,96.7z"/>
	<path fill="#F5F5F0" d="M142.1,44.5h19.4c7.2,0,12,1.3,14.5,3.8c2.5,2.5,3.8,7.3,3.8,14.3v18.8c0,7-1.3,11.8-3.8,14.3
		c-2.5,2.5-7.3,3.8-14.5,3.8h-19.4c-1.9,0-2.8-0.9-2.8-2.8V47.3C139.2,45.4,140.2,44.5,142.1,44.5z M150.8,89.7h9.9
		c2.9,0,4.8-0.6,5.8-1.7c1-1.1,1.5-3.4,1.5-6.8V62.8c0-3.4-0.5-5.7-1.5-6.8c-1-1.1-2.9-1.7-5.8-1.7h-9.9V89.7z"/>
	<path fill="#F5F5F0" d="M287.2,47.3v42.3h19.7c1.9,0,2.8,0.9,2.8,2.8v4.2c0,1.9-0.9,2.8-2.8,2.8h-28.4c-1.9,0-2.8-0.9-2.8-2.8V47.3
		c0-1.9,0.9-2.8,2.8-2.8h6C286.3,44.5,287.2,45.4,287.2,47.3z"/>
	<path fill="#F5F5F0" d="M346.7,99.5H318c-1.9,0-2.8-0.9-2.8-2.8V47.3c0-1.9,0.9-2.8,2.8-2.8h28.3c1.9,0,2.8,0.9,2.8,2.8v4.2
		c0,1.9-0.9,2.8-2.8,2.8h-19.5V67h16.6c1.9,0,2.8,0.9,2.8,2.8V74c0,1.9-0.9,2.8-2.8,2.8h-16.6v12.8h19.9c1.9,0,2.8,0.9,2.8,2.8v4.2
		C349.5,98.6,348.6,99.5,346.7,99.5z"/>
	<path fill="#F5F5F0" d="M380.9,97.3l-6.5-14.4h-8v13.8c0,1.9-0.9,2.8-2.8,2.8h-6c-1.9,0-2.8-0.9-2.8-2.8V47.3
		c0-1.9,0.9-2.8,2.8-2.8h18c6.9,0,11.7,1.2,14.3,3.6c2.6,2.4,3.9,6.8,3.9,13.1v5c0,4.6-0.6,8.1-1.9,10.6c-1.3,2.4-3.5,4.1-6.5,5.1
		l6.9,14.2c0.4,0.6,0.5,1.1,0.5,1.6c0,1.3-0.8,1.9-2.4,1.9H384C382.6,99.5,381.6,98.8,380.9,97.3z M366.5,73h9.2
		c2.5,0,4.2-0.5,5.2-1.6c1-1,1.4-2.9,1.4-5.5v-4.5c0-2.6-0.5-4.4-1.4-5.5c-1-1-2.7-1.6-5.2-1.6h-9.2V73z"/>
	<path fill="#F5F5F0" d="M239,89.2l-2.2,8.1c-0.4,1.5-1.5,2.2-3.2,2.2h-6.9c-1.5,0-2.3-0.7-2.3-2c0-0.4,0.1-1,0.3-1.8l14.6-48.5
		c0.6-1.8,2-2.7,4.3-2.7h7.6c2.3,0,3.7,0.9,4.3,2.8L270,95.9c0.2,0.7,0.3,1.3,0.3,1.6c0,1.3-0.7,1.9-2.2,1.9h-6.6
		c-1.6,0-2.6-0.7-3-2.2l-2.2-8.1H239z M247.6,57.7l-6.2,22.4h12.3L247.6,57.7z"/>
	<path fill="#F5F5F0" d="M216.4,99.5h-28.7c-1.9,0-2.8-0.9-2.8-2.8V47.3c0-1.9,0.9-2.8,2.8-2.8H216c1.9,0,2.8,0.9,2.8,2.8v4.2
		c0,1.9-0.9,2.8-2.8,2.8h-19.5V67h16.6c1.9,0,2.8,0.9,2.8,2.8V74c0,1.9-0.9,2.8-2.8,2.8h-16.6v12.8h19.9c1.9,0,2.8,0.9,2.8,2.8v4.2
		C219.2,98.6,218.3,99.5,216.4,99.5z"/>
</g>
</svg>
