<?xml version="1.0" encoding="utf-8"?>
<svg version="1.1" id="Слой_1" xmlns="http://www.w3.org/2000/svg" xmlns:xlink="http://www.w3.org/1999/xlink" x="0px" y="0px"
	 viewBox="0 0 89 68" style="enable-background:new 0 0 89 68;" xml:space="preserve">
<style type="text/css">
	.st0{fill:#FFFFFF;}
</style>
<g>
	<path class="st0" d="M55,52.5c-0.7,0-1.3-0.5-1.5-1.2l-7.8-32.8h-2.6l-4.3,18h6.9c0.7,0,1.3,0.5,1.5,1.2l1.2,5
		c0.1,0.4,0,0.9-0.3,1.3c-0.3,0.4-0.7,0.6-1.2,0.6h-9.9l-1.6,6.9c-0.2,0.8-1,1.3-1.8,1.1s-1.3-1-1.1-1.8l1.9-8
		c0.2-0.7,0.8-1.2,1.5-1.2h9.2l-0.5-2H37c-0.5,0-0.9-0.2-1.2-0.6c-0.3-0.4-0.4-0.8-0.3-1.3l5-21c0.2-0.7,0.8-1.2,1.5-1.2h5
		c0.7,0,1.3,0.5,1.5,1.2l8,34c0.2,0.8-0.3,1.6-1.1,1.8C55.2,52.5,55.1,52.5,55,52.5z"/>
</g>
</svg>
