<svg id="Слой_1" data-name="Слой 1" xmlns="http://www.w3.org/2000/svg" viewBox="0 0 68 42">
  <defs>
    <style>
      .cls-1 {
        fill: #f5f5f0;
      }

      .cls-2 {
        fill: #f9b41d;
      }

      .cls-2, .cls-3, .cls-4 {
        fill-rule: evenodd;
      }

      .cls-3 {
        fill: #e30520;
      }

      .cls-4 {
        fill: #fff;
      }

      .cls-5 {
        fill: none;
        stroke: #fff;
        stroke-miterlimit: 2.61;
        stroke-width: 0.22px;
      }
    </style>
  </defs>
  <title>mastercard</title>
  <g>
    <rect class="cls-1" width="68" height="42" rx="3" ry="3"/>
    <g>
      <polygon class="cls-2" points="45.01 37.46 45.86 37.44 46.7 37.38 47.52 37.27 48.34 37.13 49.13 36.94 49.91 36.72 50.68 36.46 51.43 36.17 52.16 35.83 52.87 35.47 53.56 35.07 54.23 34.65 54.88 34.18 55.5 33.7 56.1 33.18 56.67 32.63 57.22 32.06 57.74 31.46 58.22 30.84 58.69 30.19 59.11 29.52 59.51 28.83 59.87 28.12 60.21 27.39 60.5 26.64 60.76 25.87 60.98 25.09 61.17 24.3 61.31 23.48 61.42 22.66 61.48 21.82 61.5 20.97 61.48 20.13 61.42 19.29 61.31 18.47 61.17 17.67 60.98 16.87 60.76 16.09 60.5 15.33 60.21 14.58 59.87 13.86 59.51 13.15 59.11 12.46 58.69 11.79 58.22 11.15 57.74 10.53 57.22 9.93 56.67 9.36 56.1 8.82 55.5 8.3 54.88 7.81 54.23 7.35 53.56 6.92 52.87 6.53 52.16 6.17 51.43 5.83 50.68 5.54 49.91 5.28 49.13 5.06 48.34 4.87 47.52 4.73 46.7 4.62 45.86 4.56 45.01 4.54 44.17 4.56 43.33 4.62 42.51 4.73 41.7 4.87 40.9 5.06 40.12 5.28 39.36 5.54 38.61 5.83 37.88 6.17 37.18 6.53 36.49 6.92 35.82 7.35 35.18 7.81 34.55 8.3 33.96 8.82 33.39 9.36 32.84 9.93 32.33 10.53 31.84 11.15 31.39 11.79 30.96 12.46 30.56 13.15 30.2 13.86 29.87 14.58 29.57 15.33 29.32 16.09 29.1 16.87 28.91 17.67 28.77 18.47 28.66 19.29 28.6 20.13 28.58 20.97 28.6 21.82 28.66 22.66 28.77 23.48 28.91 24.3 29.1 25.09 29.32 25.87 29.57 26.64 29.87 27.39 30.2 28.12 30.56 28.83 30.96 29.52 31.39 30.19 31.84 30.84 32.33 31.46 32.84 32.06 33.39 32.63 33.96 33.18 34.55 33.7 35.18 34.18 35.82 34.65 36.49 35.07 37.18 35.47 37.88 35.83 38.61 36.17 39.36 36.46 40.12 36.72 40.9 36.94 41.7 37.13 42.51 37.27 43.33 37.38 44.17 37.44 45.01 37.46 45.01 37.46 45.01 37.46"/>
      <polygon class="cls-3" points="22.99 37.46 23.83 37.44 24.67 37.38 25.49 37.27 26.3 37.13 27.1 36.94 27.88 36.72 28.64 36.46 29.39 36.17 30.12 35.83 30.82 35.47 31.51 35.07 32.18 34.65 32.82 34.18 33.45 33.7 34.04 33.18 34.61 32.63 35.16 32.06 35.67 31.46 36.16 30.84 36.62 30.19 37.04 29.52 37.44 28.83 37.8 28.12 38.13 27.39 38.42 26.64 38.68 25.87 38.9 25.09 39.09 24.3 39.23 23.48 39.34 22.66 39.4 21.82 39.42 20.97 39.4 20.13 39.34 19.29 39.23 18.47 39.09 17.67 38.9 16.87 38.68 16.09 38.42 15.33 38.13 14.58 37.8 13.86 37.44 13.15 37.04 12.46 36.62 11.79 36.16 11.15 35.67 10.53 35.16 9.93 34.61 9.36 34.04 8.82 33.45 8.3 32.82 7.81 32.18 7.35 31.51 6.92 30.82 6.53 30.12 6.17 29.39 5.83 28.64 5.54 27.88 5.28 27.1 5.06 26.3 4.87 25.49 4.73 24.67 4.62 23.83 4.56 22.99 4.54 22.14 4.56 21.3 4.62 20.48 4.73 19.66 4.87 18.87 5.06 18.09 5.28 17.32 5.54 16.57 5.83 15.84 6.17 15.13 6.53 14.44 6.92 13.77 7.35 13.12 7.81 12.5 8.3 11.9 8.82 11.33 9.36 10.78 9.93 10.26 10.53 9.78 11.15 9.31 11.79 8.89 12.46 8.49 13.15 8.13 13.86 7.79 14.58 7.5 15.33 7.24 16.09 7.02 16.87 6.83 17.67 6.69 18.47 6.58 19.29 6.52 20.13 6.5 20.97 6.52 21.82 6.58 22.66 6.69 23.48 6.83 24.3 7.02 25.09 7.24 25.87 7.5 26.64 7.79 27.39 8.13 28.12 8.49 28.83 8.89 29.52 9.31 30.19 9.78 30.84 10.26 31.46 10.78 32.06 11.33 32.63 11.9 33.18 12.5 33.7 13.12 34.18 13.77 34.65 14.44 35.07 15.13 35.47 15.84 35.83 16.57 36.17 17.32 36.46 18.09 36.72 18.87 36.94 19.66 37.13 20.48 37.27 21.3 37.38 22.14 37.44 22.99 37.46 22.99 37.46 22.99 37.46"/>
      <polygon class="cls-2" points="32.07 10.85 40.82 10.85 40.82 9.96 32.83 9.96 32.07 10.85 32.07 10.85 32.07 10.85"/>
      <polygon class="cls-2" points="30.76 12.84 40.82 12.84 40.82 11.95 31.29 11.95 30.76 12.84 30.76 12.84 30.76 12.84"/>
      <polygon class="cls-2" points="29.79 14.82 40.82 14.82 40.82 13.93 30.18 13.93 29.79 14.82 29.79 14.82 29.79 14.82"/>
      <polygon class="cls-2" points="29.11 16.81 40.82 16.81 40.82 15.92 29.39 15.92 29.11 16.81 29.11 16.81 29.11 16.81"/>
      <polygon class="cls-2" points="29.5 26.42 40.85 26.42 40.85 25.52 29.23 25.52 29.5 26.42 29.5 26.42 29.5 26.42"/>
      <polygon class="cls-2" points="30.34 28.4 40.85 28.4 40.85 27.51 29.93 27.51 30.34 28.4 30.34 28.4 30.34 28.4"/>
      <polygon class="cls-2" points="31.52 30.39 40.85 30.39 40.85 29.49 30.96 29.49 31.52 30.39 31.52 30.39 31.52 30.39"/>
      <polygon class="cls-2" points="33.14 32.37 40.85 32.37 40.85 31.47 32.36 31.47 33.14 32.37 33.14 32.37 33.14 32.37"/>
      <polygon class="cls-2" points="28.72 18.79 40.82 18.79 40.82 17.9 28.89 17.9 28.72 18.79 28.72 18.79 28.72 18.79"/>
      <polygon class="cls-2" points="36.09 24.43 40.71 24.43 40.71 23.54 36.26 23.54 36.09 24.43 36.09 24.43 36.09 24.43"/>
      <polygon class="cls-2" points="36.46 22.45 40.71 22.45 40.71 21.55 36.63 21.55 36.46 22.45 36.46 22.45 36.46 22.45"/>
      <polygon class="cls-2" points="28.41 21.55 29.61 21.55 29.61 22.45 28.47 22.45 28.41 21.55 28.41 21.55 28.41 21.55"/>
      <polygon class="cls-4" points="26.18 20.47 26.1 20.46 26.02 20.45 25.95 20.44 25.88 20.43 25.81 20.42 25.74 20.41 25.67 20.4 25.59 20.39 25.51 20.38 25.42 20.37 25.32 20.36 25.22 20.36 25.1 20.36 24.97 20.36 24.83 20.38 24.67 20.39 24.56 20.4 24.45 20.42 24.36 20.45 24.27 20.49 24.2 20.52 24.12 20.57 24.07 20.63 24.02 20.68 23.98 20.74 23.96 20.8 23.95 20.86 23.95 20.93 23.96 21 23.98 21.07 24.03 21.15 24.08 21.22 24.2 21.32 24.33 21.41 24.48 21.48 24.65 21.54 24.83 21.6 25.01 21.66 25.19 21.73 25.37 21.8 25.54 21.89 25.69 22.01 25.83 22.15 25.95 22.32 26.04 22.53 26.09 22.78 26.12 23.08 26.09 23.43 26.05 23.69 25.99 23.92 25.9 24.13 25.79 24.31 25.66 24.47 25.52 24.61 25.36 24.73 25.19 24.84 25.01 24.92 24.83 25 24.64 25.05 24.45 25.09 24.26 25.13 24.07 25.14 23.89 25.16 23.72 25.16 23.48 25.16 23.26 25.16 23.06 25.16 22.88 25.15 22.71 25.14 22.56 25.13 22.43 25.12 22.3 25.11 22.18 25.09 22.08 25.07 21.97 25.06 21.88 25.03 21.79 25.01 21.7 24.97 21.61 24.94 21.51 24.91 21.76 23.68 21.81 23.69 21.87 23.71 21.95 23.73 22.05 23.75 22.15 23.77 22.26 23.8 22.38 23.82 22.51 23.85 22.65 23.87 22.8 23.89 22.95 23.91 23.1 23.92 23.26 23.93 23.42 23.93 23.58 23.93 23.75 23.93 23.91 23.89 24.03 23.85 24.13 23.79 24.21 23.71 24.27 23.64 24.31 23.55 24.34 23.46 24.36 23.37 24.37 23.21 24.32 23.07 24.23 22.96 24.09 22.87 23.92 22.79 23.73 22.7 23.51 22.62 23.3 22.54 23.07 22.43 22.86 22.32 22.67 22.17 22.49 22 22.35 21.79 22.25 21.54 22.2 21.24 22.21 20.89 22.23 20.67 22.27 20.46 22.33 20.28 22.4 20.1 22.48 19.93 22.59 19.79 22.7 19.65 22.84 19.53 23 19.42 23.18 19.33 23.38 19.25 23.6 19.19 23.85 19.14 24.12 19.1 24.42 19.08 24.75 19.07 24.95 19.07 25.14 19.08 25.32 19.08 25.47 19.09 25.61 19.1 25.74 19.11 25.85 19.12 25.95 19.13 26.04 19.14 26.12 19.16 26.19 19.17 26.26 19.18 26.32 19.19 26.37 19.2 26.42 19.21 26.46 19.21 26.18 20.47 26.18 20.47 26.18 20.47"/>
      <polyline class="cls-5" points="26.18 20.47 26.18 20.47 26.1 20.46 26.02 20.45 25.95 20.44 25.88 20.43 25.81 20.42 25.74 20.41 25.67 20.4 25.59 20.39 25.51 20.38 25.42 20.37 25.32 20.36 25.22 20.36 25.1 20.36 24.97 20.36 24.83 20.38 24.67 20.39 24.67 20.39 24.56 20.4 24.45 20.42 24.36 20.45 24.27 20.49 24.2 20.52 24.12 20.57 24.07 20.63 24.02 20.68 23.98 20.74 23.96 20.8 23.95 20.86 23.95 20.93 23.96 21 23.98 21.07 24.03 21.15 24.08 21.22 24.08 21.22 24.2 21.32 24.33 21.41 24.48 21.48 24.65 21.54 24.83 21.6 25.01 21.66 25.19 21.73 25.37 21.8 25.54 21.89 25.69 22.01 25.83 22.15 25.95 22.32 26.04 22.53 26.09 22.78 26.12 23.08 26.09 23.43 26.09 23.43 26.05 23.69 25.99 23.92 25.9 24.13 25.79 24.31 25.66 24.47 25.52 24.61 25.36 24.73 25.19 24.84 25.01 24.92 24.83 25 24.64 25.05 24.45 25.09 24.26 25.13 24.07 25.14 23.89 25.16 23.72 25.16 23.72 25.16 23.48 25.16 23.26 25.16 23.06 25.16 22.88 25.15 22.71 25.14 22.56 25.13 22.43 25.12 22.3 25.11 22.18 25.09 22.08 25.07 21.97 25.06 21.88 25.03 21.79 25.01 21.7 24.97 21.61 24.94 21.51 24.91 21.76 23.68 21.76 23.68 21.81 23.69 21.87 23.71 21.95 23.73 22.05 23.75 22.15 23.77 22.26 23.8 22.38 23.82 22.51 23.85 22.65 23.87 22.8 23.89 22.95 23.91 23.1 23.92 23.26 23.93 23.42 23.93 23.58 23.93 23.75 23.93 23.75 23.93 23.91 23.89 24.03 23.85 24.13 23.79 24.21 23.71 24.27 23.64 24.31 23.55 24.34 23.46 24.36 23.37 24.36 23.37 24.37 23.21 24.32 23.07 24.23 22.96 24.09 22.87 23.92 22.79 23.73 22.7 23.51 22.62 23.3 22.54 23.07 22.43 22.86 22.32 22.67 22.17 22.49 22 22.35 21.79 22.25 21.54 22.2 21.24 22.21 20.89 22.21 20.89 22.23 20.67 22.27 20.46 22.33 20.28 22.4 20.1 22.48 19.93 22.59 19.79 22.7 19.65 22.84 19.53 23 19.42 23.18 19.33 23.38 19.25 23.6 19.19 23.85 19.14 24.12 19.1 24.42 19.08 24.75 19.07 24.75 19.07 24.95 19.07 25.14 19.08 25.32 19.08 25.47 19.09 25.61 19.1 25.74 19.11 25.85 19.12 25.95 19.13 26.04 19.14 26.12 19.16 26.19 19.17 26.26 19.18 26.32 19.19 26.37 19.2 26.42 19.21 26.46 19.21 26.18 20.47"/>
      <polygon class="cls-4" points="27.49 17.84 29.03 17.84 28.8 19.19 29.73 19.19 29.53 20.44 28.55 20.41 28.02 23.51 28.02 23.62 28.04 23.72 28.1 23.79 28.17 23.85 28.27 23.89 28.38 23.92 28.5 23.95 28.64 23.96 28.76 23.95 28.87 23.94 28.97 23.92 29.06 23.9 29.13 23.88 29.18 23.86 29.21 23.85 29.23 23.85 29.03 24.88 28.99 24.91 28.95 24.93 28.91 24.95 28.88 24.97 28.84 24.99 28.79 25.01 28.74 25.02 28.69 25.04 28.64 25.06 28.58 25.07 28.51 25.08 28.45 25.09 28.38 25.1 28.29 25.11 28.2 25.12 28.11 25.13 27.69 25.13 27.46 25.12 27.27 25.09 27.09 25.06 26.94 25.02 26.82 24.97 26.71 24.92 26.62 24.85 26.54 24.78 26.49 24.7 26.45 24.61 26.42 24.51 26.41 24.41 26.4 24.29 26.4 24.17 26.42 24.04 26.43 23.9 27.49 17.84 27.49 17.84 27.49 17.84"/>
      <polyline class="cls-5" points="27.49 17.84 29.03 17.84 28.8 19.19 29.73 19.19 29.53 20.44 28.55 20.41 28.02 23.51 28.02 23.51 28.02 23.62 28.04 23.72 28.1 23.79 28.17 23.85 28.27 23.89 28.38 23.92 28.5 23.95 28.64 23.96 28.64 23.96 28.76 23.95 28.87 23.94 28.97 23.92 29.06 23.9 29.13 23.88 29.18 23.86 29.21 23.85 29.23 23.85 29.03 24.88 29.03 24.88 28.99 24.91 28.95 24.93 28.91 24.95 28.88 24.97 28.84 24.99 28.79 25.01 28.74 25.02 28.69 25.04 28.64 25.06 28.58 25.07 28.51 25.08 28.45 25.09 28.38 25.1 28.29 25.11 28.2 25.12 28.11 25.13 27.69 25.13 27.69 25.13 27.46 25.12 27.27 25.09 27.09 25.06 26.94 25.02 26.82 24.97 26.71 24.92 26.62 24.85 26.54 24.78 26.49 24.7 26.45 24.61 26.42 24.51 26.41 24.41 26.4 24.29 26.4 24.17 26.42 24.04 26.43 23.9 27.49 17.84"/>
      <polygon class="cls-4" points="30.96 22.54 30.94 22.63 30.93 22.73 30.95 22.84 30.97 22.94 31.01 23.05 31.05 23.15 31.11 23.25 31.18 23.35 31.26 23.44 31.34 23.52 31.43 23.61 31.53 23.67 31.63 23.73 31.74 23.78 31.85 23.82 31.96 23.85 32.11 23.87 32.25 23.88 32.39 23.9 32.53 23.91 32.68 23.92 32.83 23.92 32.97 23.91 33.12 23.9 33.27 23.88 33.42 23.85 33.58 23.82 33.73 23.77 33.88 23.71 34.04 23.64 34.2 23.55 34.36 23.46 34.14 24.82 34.05 24.87 33.96 24.91 33.87 24.95 33.79 24.98 33.71 25.01 33.62 25.03 33.53 25.06 33.43 25.07 33.33 25.09 33.22 25.1 33.11 25.11 32.98 25.12 32.83 25.13 32.68 25.13 32.51 25.13 32.33 25.13 32.06 25.13 31.78 25.1 31.5 25.06 31.22 25 30.95 24.91 30.69 24.81 30.44 24.67 30.21 24.51 29.99 24.32 29.8 24.09 29.64 23.84 29.51 23.54 29.41 23.21 29.35 22.84 29.34 22.43 29.36 21.97 29.39 21.8 29.42 21.59 29.46 21.38 29.52 21.14 29.61 20.9 29.71 20.66 29.84 20.42 29.99 20.19 30.17 19.96 30.39 19.75 30.63 19.57 30.91 19.4 31.23 19.26 31.59 19.16 31.99 19.09 32.44 19.07 32.66 19.08 32.88 19.1 33.11 19.14 33.34 19.19 33.56 19.28 33.78 19.38 33.98 19.51 34.16 19.66 34.33 19.85 34.47 20.08 34.58 20.33 34.66 20.63 34.7 20.96 34.7 21.34 34.67 21.76 34.58 22.22 34.55 22.56 30.51 22.56 30.76 21.47 33.2 21.47 33.21 21.33 33.2 21.2 33.19 21.07 33.17 20.96 33.13 20.86 33.09 20.76 33.03 20.68 32.98 20.6 32.91 20.54 32.84 20.48 32.76 20.43 32.67 20.39 32.58 20.35 32.49 20.33 32.4 20.31 32.3 20.3 32.2 20.31 32.1 20.33 32 20.35 31.91 20.38 31.81 20.43 31.73 20.48 31.65 20.54 31.57 20.6 31.5 20.68 31.43 20.76 31.37 20.85 31.32 20.95 31.27 21.05 31.23 21.16 31.2 21.27 31.18 21.39 30.96 22.54 30.96 22.54 30.96 22.54"/>
      <polyline class="cls-5" points="30.96 22.54 30.96 22.54 30.94 22.63 30.93 22.73 30.95 22.84 30.97 22.94 31.01 23.05 31.05 23.15 31.11 23.25 31.18 23.35 31.26 23.44 31.34 23.52 31.43 23.61 31.53 23.67 31.63 23.73 31.74 23.78 31.85 23.82 31.96 23.85 31.96 23.85 32.11 23.87 32.25 23.88 32.39 23.9 32.53 23.91 32.68 23.92 32.83 23.92 32.97 23.91 33.12 23.9 33.27 23.88 33.42 23.85 33.58 23.82 33.73 23.77 33.88 23.71 34.04 23.64 34.2 23.55 34.36 23.46 34.14 24.82 34.14 24.82 34.05 24.87 33.96 24.91 33.87 24.95 33.79 24.98 33.71 25.01 33.62 25.03 33.53 25.06 33.43 25.07 33.33 25.09 33.22 25.1 33.11 25.11 32.98 25.12 32.83 25.13 32.68 25.13 32.51 25.13 32.33 25.13 32.33 25.13 32.06 25.13 31.78 25.1 31.5 25.06 31.22 25 30.95 24.91 30.69 24.81 30.44 24.67 30.21 24.51 29.99 24.32 29.8 24.09 29.64 23.84 29.51 23.54 29.41 23.21 29.35 22.84 29.34 22.43 29.36 21.97 29.36 21.97 29.39 21.8 29.42 21.59 29.46 21.38 29.52 21.14 29.61 20.9 29.71 20.66 29.84 20.42 29.99 20.19 30.17 19.96 30.39 19.75 30.63 19.57 30.91 19.4 31.23 19.26 31.59 19.16 31.99 19.09 32.44 19.07 32.44 19.07 32.66 19.08 32.88 19.1 33.11 19.14 33.34 19.19 33.56 19.28 33.78 19.38 33.98 19.51 34.16 19.66 34.33 19.85 34.47 20.08 34.58 20.33 34.66 20.63 34.7 20.96 34.7 21.34 34.67 21.76 34.58 22.22 34.55 22.56 30.51 22.56 30.76 21.47 33.2 21.47 33.2 21.47 33.21 21.33 33.2 21.2 33.19 21.07 33.17 20.96 33.13 20.86 33.09 20.76 33.03 20.68 32.98 20.6 32.91 20.54 32.84 20.48 32.76 20.43 32.67 20.39 32.58 20.35 32.49 20.33 32.4 20.31 32.3 20.3 32.3 20.3 32.2 20.31 32.1 20.33 32 20.35 31.91 20.38 31.81 20.43 31.73 20.48 31.65 20.54 31.57 20.6 31.5 20.68 31.43 20.76 31.37 20.85 31.32 20.95 31.27 21.05 31.23 21.16 31.2 21.27 31.18 21.39 30.96 22.54"/>
      <polygon class="cls-4" points="44.2 19.52 44.13 19.48 44.05 19.45 43.98 19.41 43.89 19.37 43.81 19.34 43.72 19.3 43.62 19.27 43.52 19.24 43.42 19.21 43.31 19.19 43.19 19.16 43.08 19.15 42.95 19.14 42.82 19.13 42.69 19.13 42.55 19.13 42.41 19.13 42.27 19.14 42.12 19.15 41.96 19.18 41.81 19.23 41.65 19.29 41.49 19.36 41.34 19.46 41.19 19.59 41.05 19.73 40.91 19.91 40.77 20.11 40.65 20.36 40.53 20.64 40.43 20.95 40.34 21.3 40.31 21.5 40.28 21.7 40.27 21.89 40.28 22.08 40.3 22.27 40.34 22.45 40.38 22.61 40.45 22.78 40.53 22.93 40.63 23.07 40.75 23.2 40.88 23.32 41.03 23.42 41.2 23.5 41.39 23.57 41.6 23.62 41.67 23.64 41.76 23.66 41.86 23.67 41.97 23.68 42.09 23.69 42.22 23.69 42.36 23.69 42.49 23.68 42.64 23.66 42.78 23.64 42.92 23.6 43.06 23.55 43.2 23.49 43.33 23.42 43.44 23.33 43.55 23.23 43.3 24.71 43.27 24.74 43.24 24.77 43.19 24.81 43.14 24.84 43.08 24.89 43.01 24.93 42.92 24.97 42.82 25 42.69 25.04 42.55 25.07 42.38 25.09 42.18 25.11 41.97 25.12 41.72 25.13 41.43 25.12 41.12 25.11 40.87 25.08 40.61 25.02 40.36 24.94 40.1 24.83 39.86 24.7 39.62 24.53 39.4 24.33 39.2 24.11 39.01 23.86 38.86 23.59 38.73 23.27 38.63 22.93 38.56 22.56 38.54 22.17 38.55 21.74 38.61 21.27 38.65 21.05 38.7 20.82 38.76 20.61 38.81 20.4 38.88 20.21 38.95 20.02 39.02 19.83 39.1 19.66 39.18 19.49 39.26 19.33 39.36 19.17 39.46 19.03 39.56 18.89 39.67 18.75 39.78 18.63 39.9 18.52 40.02 18.4 40.15 18.3 40.28 18.2 40.42 18.12 40.57 18.03 40.72 17.96 40.88 17.89 41.04 17.83 41.21 17.78 41.38 17.73 41.56 17.69 41.75 17.66 41.94 17.63 42.14 17.61 42.34 17.6 42.55 17.59 42.73 17.6 42.9 17.61 43.07 17.63 43.23 17.65 43.39 17.67 43.54 17.7 43.68 17.73 43.82 17.77 43.94 17.8 44.05 17.83 44.16 17.87 44.25 17.9 44.33 17.93 44.39 17.95 44.44 17.97 44.48 17.98 44.2 19.52 44.2 19.52 44.2 19.52"/>
      <polyline class="cls-5" points="44.2 19.52 44.2 19.52 44.13 19.48 44.05 19.45 43.98 19.41 43.89 19.37 43.81 19.34 43.72 19.3 43.62 19.27 43.52 19.24 43.42 19.21 43.31 19.19 43.19 19.16 43.08 19.15 42.95 19.14 42.82 19.13 42.69 19.13 42.55 19.13 42.55 19.13 42.41 19.13 42.27 19.14 42.12 19.15 41.96 19.18 41.81 19.23 41.65 19.29 41.49 19.36 41.34 19.46 41.19 19.59 41.05 19.73 40.91 19.91 40.77 20.11 40.65 20.36 40.53 20.64 40.43 20.95 40.34 21.3 40.34 21.3 40.31 21.5 40.28 21.7 40.27 21.89 40.28 22.08 40.3 22.27 40.34 22.45 40.38 22.61 40.45 22.78 40.53 22.93 40.63 23.07 40.75 23.2 40.88 23.32 41.03 23.42 41.2 23.5 41.39 23.57 41.6 23.62 41.6 23.62 41.67 23.64 41.76 23.66 41.86 23.67 41.97 23.68 42.09 23.69 42.22 23.69 42.36 23.69 42.49 23.68 42.64 23.66 42.78 23.64 42.92 23.6 43.06 23.55 43.2 23.49 43.33 23.42 43.44 23.33 43.55 23.23 43.3 24.71 43.3 24.71 43.27 24.74 43.24 24.77 43.19 24.81 43.14 24.84 43.08 24.89 43.01 24.93 42.92 24.97 42.82 25 42.69 25.04 42.55 25.07 42.38 25.09 42.18 25.11 41.97 25.12 41.72 25.13 41.43 25.12 41.12 25.11 41.12 25.11 40.87 25.08 40.61 25.02 40.36 24.94 40.1 24.83 39.86 24.7 39.62 24.53 39.4 24.33 39.2 24.11 39.01 23.86 38.86 23.59 38.73 23.27 38.63 22.93 38.56 22.56 38.54 22.17 38.55 21.74 38.61 21.27 38.61 21.27 38.65 21.05 38.7 20.82 38.76 20.61 38.81 20.4 38.88 20.21 38.95 20.02 39.02 19.83 39.1 19.66 39.18 19.49 39.26 19.33 39.36 19.17 39.46 19.03 39.56 18.89 39.67 18.75 39.78 18.63 39.9 18.52 40.02 18.4 40.15 18.3 40.28 18.2 40.42 18.12 40.57 18.03 40.72 17.96 40.88 17.89 41.04 17.83 41.21 17.78 41.38 17.73 41.56 17.69 41.75 17.66 41.94 17.63 42.14 17.61 42.34 17.6 42.55 17.59 42.55 17.59 42.73 17.6 42.9 17.61 43.07 17.63 43.23 17.65 43.39 17.67 43.54 17.7 43.68 17.73 43.82 17.77 43.94 17.8 44.05 17.83 44.16 17.87 44.25 17.9 44.33 17.93 44.39 17.95 44.44 17.97 44.48 17.98 44.2 19.52"/>
      <polygon class="cls-4" points="57.87 25.13 56.33 25.13 56.44 24.52 56.44 24.46 56.35 24.57 56.26 24.67 56.16 24.76 56.06 24.84 55.96 24.91 55.86 24.97 55.77 25.02 55.66 25.07 55.55 25.11 55.45 25.14 55.34 25.17 55.23 25.18 55.12 25.2 55.02 25.21 54.9 25.22 54.79 25.22 54.5 25.2 54.24 25.13 53.99 25.04 53.77 24.91 53.57 24.75 53.39 24.56 53.24 24.36 53.1 24.12 52.99 23.87 52.91 23.61 52.84 23.34 52.8 23.06 52.78 22.77 52.79 22.48 52.82 22.2 52.87 21.92 52.95 21.59 53.05 21.28 53.17 21 53.3 20.73 53.45 20.48 53.62 20.26 53.79 20.06 53.97 19.88 54.17 19.71 54.37 19.58 54.58 19.45 54.79 19.36 55.02 19.28 55.24 19.23 55.46 19.2 55.69 19.19 55.85 19.19 56 19.21 56.15 19.24 56.28 19.28 56.41 19.32 56.52 19.37 56.63 19.43 56.73 19.49 56.82 19.56 56.9 19.63 56.98 19.7 57.04 19.78 57.1 19.85 57.15 19.92 57.19 19.99 57.23 20.05 57.23 20.05 57.61 17.87 59.12 17.87 57.87 25.13 57.87 25.13 57.87 25.13"/>
      <polyline class="cls-5" points="57.87 25.13 56.33 25.13 56.44 24.52 56.44 24.46 56.44 24.46 56.35 24.57 56.26 24.67 56.16 24.76 56.06 24.84 55.96 24.91 55.86 24.97 55.77 25.02 55.66 25.07 55.55 25.11 55.45 25.14 55.34 25.17 55.23 25.18 55.12 25.2 55.02 25.21 54.9 25.22 54.79 25.22 54.79 25.22 54.5 25.2 54.24 25.13 53.99 25.04 53.77 24.91 53.57 24.75 53.39 24.56 53.24 24.36 53.1 24.12 52.99 23.87 52.91 23.61 52.84 23.34 52.8 23.06 52.78 22.77 52.79 22.48 52.82 22.2 52.87 21.92 52.87 21.92 52.95 21.59 53.05 21.28 53.17 21 53.3 20.73 53.45 20.48 53.62 20.26 53.79 20.06 53.97 19.88 54.17 19.71 54.37 19.58 54.58 19.45 54.79 19.36 55.02 19.28 55.24 19.23 55.46 19.2 55.69 19.19 55.69 19.19 55.85 19.19 56 19.21 56.15 19.24 56.28 19.28 56.41 19.32 56.52 19.37 56.63 19.43 56.73 19.49 56.82 19.56 56.9 19.63 56.98 19.7 57.04 19.78 57.1 19.85 57.15 19.92 57.19 19.99 57.23 20.05 57.23 20.05 57.61 17.87 59.12 17.87 57.87 25.13"/>
      <polygon class="cls-2" points="55.35 23.79 55.51 23.78 55.65 23.75 55.79 23.71 55.91 23.65 56.03 23.58 56.14 23.5 56.25 23.4 56.34 23.3 56.42 23.19 56.5 23.07 56.58 22.94 56.64 22.81 56.69 22.67 56.74 22.52 56.77 22.37 56.8 22.22 56.83 22.07 56.85 21.91 56.85 21.76 56.84 21.6 56.83 21.46 56.8 21.32 56.76 21.19 56.72 21.06 56.66 20.95 56.6 20.84 56.52 20.75 56.44 20.68 56.35 20.61 56.25 20.56 56.14 20.54 56.03 20.52 55.88 20.54 55.74 20.56 55.61 20.6 55.48 20.66 55.37 20.73 55.26 20.82 55.16 20.91 55.07 21.02 54.99 21.14 54.91 21.27 54.84 21.4 54.78 21.55 54.72 21.7 54.68 21.85 54.63 22.01 54.6 22.17 54.57 22.41 54.58 22.68 54.62 22.95 54.69 23.21 54.8 23.44 54.95 23.62 55.13 23.75 55.35 23.79 55.35 23.79 55.35 23.79"/>
      <polygon class="cls-4" points="21.26 23.9 21.04 25.13 19.64 25.13 19.68 24.91 19.7 24.7 19.73 24.55 19.75 24.46 19.67 24.55 19.58 24.64 19.48 24.72 19.36 24.8 19.23 24.88 19.09 24.95 18.94 25.01 18.79 25.07 18.63 25.12 18.47 25.16 18.31 25.19 18.14 25.21 17.98 25.22 17.82 25.23 17.66 25.21 17.52 25.19 17.32 25.14 17.14 25.08 16.99 25.01 16.85 24.93 16.73 24.84 16.62 24.74 16.53 24.63 16.45 24.52 16.38 24.41 16.33 24.28 16.28 24.16 16.25 24.04 16.23 23.91 16.21 23.78 16.2 23.66 16.2 23.54 16.22 23.32 16.25 23.12 16.3 22.92 16.38 22.73 16.47 22.56 16.57 22.4 16.68 22.24 16.82 22.1 16.95 21.97 17.11 21.86 17.27 21.75 17.44 21.66 17.61 21.59 17.8 21.52 17.99 21.48 18.18 21.44 18.19 21.44 18.22 21.44 18.26 21.43 18.32 21.43 18.39 21.41 18.46 21.41 18.55 21.4 18.64 21.39 18.74 21.38 18.83 21.36 18.93 21.36 19.02 21.35 19.11 21.34 19.19 21.34 19.27 21.33 19.33 21.33 19.46 21.33 19.59 21.34 19.71 21.34 19.84 21.34 19.94 21.35 20.01 21.35 20.07 21.36 20.09 21.36 20.1 21.32 20.13 21.22 20.16 21.1 20.17 21 20.15 20.88 20.1 20.76 20.03 20.66 19.94 20.58 19.84 20.51 19.72 20.46 19.59 20.43 19.44 20.41 19.29 20.41 19.12 20.4 18.95 20.4 18.77 20.41 18.59 20.42 18.41 20.44 18.23 20.45 18.06 20.48 17.89 20.5 17.73 20.52 17.59 20.55 17.45 20.58 17.33 20.61 17.23 20.65 17.16 20.69 17.09 20.72 17.49 19.38 17.61 19.33 17.73 19.29 17.86 19.25 18 19.22 18.13 19.19 18.28 19.17 18.42 19.15 18.57 19.14 18.73 19.13 18.89 19.12 19.05 19.11 19.23 19.11 19.4 19.11 19.59 19.11 19.78 19.12 19.98 19.13 20.13 19.14 20.3 19.16 20.47 19.2 20.65 19.25 20.82 19.32 20.99 19.4 21.15 19.49 21.31 19.6 21.45 19.72 21.57 19.85 21.68 20 21.76 20.17 21.82 20.35 21.85 20.54 21.85 20.75 21.82 20.97 21.26 23.9 21.26 23.9 21.26 23.9"/>
      <polyline class="cls-5" points="21.26 23.9 21.04 25.13 19.64 25.13 19.64 25.13 19.68 24.91 19.7 24.7 19.73 24.55 19.75 24.46 19.75 24.46 19.67 24.55 19.58 24.64 19.48 24.72 19.36 24.8 19.23 24.88 19.09 24.95 18.94 25.01 18.79 25.07 18.63 25.12 18.47 25.16 18.31 25.19 18.14 25.21 17.98 25.22 17.82 25.23 17.66 25.21 17.52 25.19 17.52 25.19 17.32 25.14 17.14 25.08 16.99 25.01 16.85 24.93 16.73 24.84 16.62 24.74 16.53 24.63 16.45 24.52 16.38 24.41 16.33 24.28 16.28 24.16 16.25 24.04 16.23 23.91 16.21 23.78 16.2 23.66 16.2 23.54 16.2 23.54 16.22 23.32 16.25 23.12 16.3 22.92 16.38 22.73 16.47 22.56 16.57 22.4 16.68 22.24 16.82 22.1 16.95 21.97 17.11 21.86 17.27 21.75 17.44 21.66 17.61 21.59 17.8 21.52 17.99 21.48 18.18 21.44 18.18 21.44 18.19 21.44 18.22 21.44 18.26 21.43 18.32 21.43 18.39 21.41 18.46 21.41 18.55 21.4 18.64 21.39 18.74 21.38 18.83 21.36 18.93 21.36 19.02 21.35 19.11 21.34 19.19 21.34 19.27 21.33 19.33 21.33 19.33 21.33 19.46 21.33 19.59 21.34 19.71 21.34 19.84 21.34 19.94 21.35 20.01 21.35 20.07 21.36 20.09 21.36 20.09 21.36 20.1 21.32 20.13 21.22 20.16 21.1 20.17 21 20.17 21 20.15 20.88 20.1 20.76 20.03 20.66 19.94 20.58 19.84 20.51 19.72 20.46 19.59 20.43 19.44 20.41 19.44 20.41 19.29 20.41 19.12 20.4 18.95 20.4 18.77 20.41 18.59 20.42 18.41 20.44 18.23 20.45 18.06 20.48 17.89 20.5 17.73 20.52 17.59 20.55 17.45 20.58 17.33 20.61 17.23 20.65 17.16 20.69 17.09 20.72 17.49 19.38 17.49 19.38 17.61 19.33 17.73 19.29 17.86 19.25 18 19.22 18.13 19.19 18.28 19.17 18.42 19.15 18.57 19.14 18.73 19.13 18.89 19.12 19.05 19.11 19.23 19.11 19.4 19.11 19.59 19.11 19.78 19.12 19.98 19.13 19.98 19.13 20.13 19.14 20.3 19.16 20.47 19.2 20.65 19.25 20.82 19.32 20.99 19.4 21.15 19.49 21.31 19.6 21.45 19.72 21.57 19.85 21.68 20 21.76 20.17 21.82 20.35 21.85 20.54 21.85 20.75 21.82 20.97 21.26 23.9"/>
      <polygon class="cls-3" points="19.92 22.45 19.91 22.42 19.89 22.4 19.86 22.38 19.8 22.37 19.74 22.36 19.67 22.35 19.59 22.35 19.5 22.35 19.41 22.36 19.32 22.37 19.23 22.38 19.14 22.39 19.06 22.4 18.98 22.42 18.91 22.43 18.85 22.45 18.82 22.46 18.77 22.48 18.71 22.5 18.65 22.53 18.58 22.56 18.5 22.6 18.43 22.64 18.35 22.68 18.28 22.74 18.2 22.8 18.14 22.86 18.08 22.93 18.02 23 17.98 23.08 17.95 23.17 17.93 23.26 17.93 23.45 17.95 23.6 18.01 23.71 18.08 23.79 18.16 23.85 18.26 23.88 18.35 23.89 18.44 23.9 18.6 23.89 18.75 23.88 18.9 23.86 19.03 23.82 19.14 23.78 19.24 23.73 19.34 23.68 19.42 23.62 19.49 23.57 19.56 23.5 19.61 23.44 19.66 23.37 19.7 23.31 19.73 23.24 19.76 23.18 19.77 23.12 19.82 22.96 19.86 22.77 19.89 22.6 19.92 22.45 19.92 22.45 19.92 22.45"/>
      <polygon class="cls-4" points="9.58 25.13 8.07 25.13 9.33 17.84 11.95 17.84 12.2 22.17 14.02 17.84 16.76 17.84 15.47 25.13 13.96 25.13 14.92 19.69 14.86 19.69 12.6 25.13 10.89 25.13 10.88 24.91 10.84 24.3 10.79 23.44 10.74 22.45 10.68 21.46 10.63 20.59 10.59 19.95 10.58 19.69 10.56 19.69 10.53 19.69 10.5 19.69 10.5 19.69 9.58 25.13 9.58 25.13 9.58 25.13"/>
      <polyline class="cls-5" points="9.58 25.13 8.07 25.13 9.33 17.84 11.95 17.84 12.2 22.17 14.02 17.84 16.76 17.84 15.47 25.13 13.96 25.13 14.92 19.69 14.86 19.69 12.6 25.13 10.89 25.13 10.89 25.13 10.88 24.91 10.84 24.3 10.79 23.44 10.74 22.45 10.68 21.46 10.63 20.59 10.59 19.95 10.58 19.69 10.58 19.69 10.56 19.69 10.53 19.69 10.5 19.69 10.5 19.69 9.58 25.13"/>
      <polygon class="cls-4" points="48.81 23.9 48.59 25.13 47.19 25.13 47.2 24.91 47.21 24.71 47.21 24.56 47.22 24.49 47.15 24.57 47.06 24.66 46.96 24.73 46.85 24.81 46.74 24.88 46.6 24.95 46.47 25.02 46.33 25.07 46.18 25.12 46.02 25.16 45.87 25.19 45.71 25.21 45.55 25.22 45.39 25.23 45.24 25.21 45.09 25.19 44.89 25.14 44.72 25.08 44.56 25.01 44.42 24.93 44.29 24.84 44.19 24.74 44.1 24.63 44.02 24.52 43.95 24.41 43.91 24.28 43.86 24.16 43.83 24.04 43.81 23.91 43.79 23.78 43.78 23.66 43.78 23.54 43.79 23.32 43.83 23.12 43.88 22.92 43.95 22.73 44.03 22.56 44.14 22.4 44.26 22.24 44.38 22.1 44.53 21.97 44.68 21.86 44.84 21.75 45.01 21.66 45.18 21.59 45.37 21.52 45.55 21.48 45.74 21.44 45.75 21.44 45.78 21.44 45.81 21.43 45.87 21.43 45.94 21.41 46.02 21.41 46.1 21.4 46.19 21.39 46.29 21.38 46.39 21.36 46.48 21.36 46.58 21.35 46.66 21.34 46.74 21.34 46.82 21.33 46.88 21.33 47.01 21.33 47.15 21.34 47.27 21.34 47.4 21.34 47.5 21.35 47.59 21.35 47.64 21.36 47.66 21.36 47.67 21.32 47.69 21.22 47.71 21.1 47.72 21 47.7 20.88 47.65 20.76 47.58 20.66 47.5 20.58 47.4 20.51 47.28 20.46 47.16 20.43 47.02 20.41 46.87 20.41 46.7 20.4 46.53 20.4 46.35 20.41 46.17 20.42 45.99 20.44 45.81 20.45 45.64 20.48 45.48 20.5 45.31 20.52 45.17 20.55 45.04 20.58 44.92 20.61 44.82 20.65 44.74 20.69 44.68 20.72 45.07 19.38 45.19 19.33 45.31 19.29 45.44 19.25 45.58 19.22 45.72 19.19 45.85 19.17 46 19.15 46.15 19.14 46.3 19.13 46.47 19.12 46.63 19.11 46.8 19.11 46.97 19.11 47.15 19.11 47.34 19.12 47.52 19.13 47.68 19.14 47.85 19.16 48.02 19.2 48.2 19.25 48.37 19.32 48.54 19.4 48.71 19.49 48.86 19.6 49 19.72 49.13 19.85 49.24 20 49.32 20.17 49.38 20.35 49.42 20.54 49.42 20.75 49.4 20.97 48.81 23.9 48.81 23.9 48.81 23.9"/>
      <polygon class="cls-4" points="48.59 25.17 48.62 25.14 48.85 23.91 48.78 23.89 48.55 25.13 48.59 25.09 48.59 25.17 48.61 25.17 48.62 25.14 48.59 25.17 48.59 25.17 48.59 25.17"/>
      <polygon class="cls-4" points="47.16 25.13 47.19 25.17 48.59 25.17 48.59 25.09 47.19 25.09 47.23 25.13 47.16 25.13 47.15 25.17 47.19 25.17 47.16 25.13 47.16 25.13 47.16 25.13"/>
      <polygon class="cls-4" points="47.25 24.51 47.2 24.47 47.17 24.56 47.17 24.71 47.17 24.91 47.16 25.13 47.23 25.13 47.24 24.91 47.25 24.71 47.24 24.56 47.24 24.51 47.19 24.47 47.25 24.51 47.25 24.51 47.25 24.51"/>
      <polygon class="cls-4" points="45.09 25.22 45.09 25.22 45.24 25.25 45.39 25.26 45.55 25.26 45.71 25.25 45.87 25.22 46.03 25.2 46.18 25.15 46.34 25.11 46.48 25.05 46.62 24.98 46.75 24.92 46.87 24.84 46.99 24.76 47.09 24.68 47.17 24.59 47.25 24.51 47.19 24.47 47.12 24.55 47.04 24.63 46.94 24.71 46.84 24.78 46.72 24.85 46.59 24.92 46.45 24.98 46.31 25.04 46.17 25.08 46.02 25.13 45.86 25.16 45.71 25.18 45.55 25.19 45.39 25.2 45.24 25.18 45.1 25.16 45.1 25.16 45.09 25.22 45.09 25.22 45.09 25.22"/>
      <polygon class="cls-4" points="43.74 23.54 43.74 23.54 43.75 23.66 43.76 23.78 43.78 23.92 43.8 24.05 43.83 24.17 43.87 24.3 43.92 24.42 43.99 24.54 44.07 24.66 44.16 24.76 44.27 24.87 44.4 24.96 44.54 25.05 44.7 25.12 44.89 25.17 45.09 25.22 45.1 25.16 44.9 25.11 44.73 25.05 44.58 24.98 44.43 24.9 44.32 24.81 44.22 24.72 44.13 24.61 44.05 24.51 43.99 24.39 43.94 24.27 43.89 24.16 43.87 24.03 43.84 23.91 43.83 23.78 43.82 23.66 43.82 23.54 43.82 23.54 43.74 23.54 43.74 23.54 43.74 23.54"/>
      <polygon class="cls-4" points="45.74 21.41 45.74 21.41 45.54 21.44 45.35 21.49 45.17 21.55 44.99 21.63 44.82 21.72 44.66 21.83 44.51 21.95 44.36 22.08 44.23 22.22 44.11 22.37 44 22.54 43.92 22.72 43.84 22.91 43.79 23.11 43.76 23.32 43.74 23.54 43.82 23.54 43.83 23.32 43.86 23.12 43.91 22.93 43.98 22.75 44.07 22.57 44.17 22.42 44.28 22.26 44.41 22.12 44.55 22 44.7 21.89 44.85 21.79 45.03 21.7 45.19 21.62 45.38 21.56 45.55 21.51 45.74 21.48 45.74 21.48 45.74 21.41 45.74 21.41 45.74 21.41"/>
      <polygon class="cls-4" points="46.88 21.29 46.88 21.29 46.82 21.29 46.74 21.3 46.66 21.31 46.58 21.31 46.48 21.32 46.39 21.33 46.29 21.34 46.19 21.35 46.1 21.36 46.02 21.38 45.94 21.38 45.87 21.39 45.81 21.4 45.77 21.4 45.75 21.41 45.74 21.41 45.74 21.48 45.75 21.48 45.78 21.47 45.81 21.46 45.87 21.46 45.94 21.45 46.02 21.44 46.1 21.43 46.19 21.42 46.29 21.41 46.39 21.4 46.48 21.39 46.58 21.38 46.66 21.38 46.74 21.37 46.82 21.37 46.88 21.37 46.88 21.37 46.88 21.29 46.88 21.29 46.88 21.29"/>
      <polygon class="cls-4" points="47.63 21.35 47.66 21.32 47.64 21.32 47.59 21.32 47.5 21.31 47.4 21.3 47.27 21.3 47.15 21.3 47.01 21.29 46.88 21.29 46.88 21.37 47.01 21.37 47.15 21.37 47.27 21.38 47.4 21.38 47.5 21.38 47.59 21.39 47.64 21.39 47.66 21.39 47.7 21.36 47.66 21.39 47.69 21.4 47.7 21.36 47.63 21.35 47.63 21.35 47.63 21.35"/>
      <polygon class="cls-4" points="47.69 21 47.68 21 47.67 21.1 47.66 21.21 47.64 21.31 47.63 21.35 47.7 21.36 47.71 21.32 47.73 21.23 47.74 21.1 47.76 21 47.75 21 47.69 21 47.69 21 47.69 21"/>
      <polygon class="cls-4" points="47.02 20.45 47.02 20.45 47.15 20.46 47.27 20.49 47.38 20.54 47.48 20.61 47.55 20.69 47.62 20.78 47.66 20.88 47.69 21 47.75 21 47.73 20.87 47.69 20.75 47.61 20.64 47.52 20.55 47.41 20.48 47.29 20.43 47.16 20.39 47.02 20.38 47.02 20.38 47.02 20.45 47.02 20.45 47.02 20.45"/>
      <polygon class="cls-4" points="44.64 20.71 44.7 20.75 44.76 20.72 44.83 20.68 44.92 20.65 45.04 20.61 45.18 20.59 45.32 20.56 45.48 20.53 45.64 20.51 45.81 20.49 45.99 20.47 46.17 20.45 46.35 20.44 46.53 20.44 46.7 20.44 46.87 20.44 47.02 20.45 47.02 20.38 46.87 20.38 46.7 20.36 46.53 20.36 46.35 20.38 46.17 20.39 45.99 20.4 45.81 20.42 45.64 20.44 45.47 20.46 45.31 20.49 45.16 20.52 45.03 20.55 44.91 20.58 44.8 20.61 44.72 20.65 44.66 20.69 44.71 20.73 44.64 20.71 44.64 20.71 44.64 20.71"/>
      <polygon class="cls-4" points="45.05 19.35 45.03 19.38 44.64 20.71 44.71 20.73 45.1 19.39 45.08 19.41 45.05 19.35 45.04 19.35 45.03 19.38 45.05 19.35 45.05 19.35 45.05 19.35"/>
      <polygon class="cls-4" points="47.52 19.09 47.52 19.09 47.34 19.08 47.15 19.08 46.97 19.08 46.8 19.08 46.63 19.08 46.47 19.09 46.3 19.09 46.15 19.1 46 19.11 45.85 19.14 45.71 19.16 45.57 19.19 45.44 19.21 45.3 19.25 45.18 19.3 45.05 19.35 45.08 19.41 45.2 19.36 45.33 19.32 45.45 19.28 45.58 19.25 45.72 19.23 45.86 19.2 46 19.18 46.15 19.17 46.3 19.16 46.47 19.15 46.63 19.15 46.8 19.15 46.97 19.15 47.15 19.15 47.34 19.16 47.52 19.16 47.52 19.16 47.52 19.09 47.52 19.09 47.52 19.09"/>
      <polygon class="cls-4" points="49.43 20.98 49.43 20.98 49.46 20.75 49.46 20.54 49.42 20.34 49.36 20.16 49.27 19.99 49.16 19.83 49.02 19.69 48.88 19.57 48.72 19.46 48.56 19.36 48.38 19.29 48.21 19.22 48.02 19.17 47.85 19.13 47.68 19.1 47.52 19.09 47.52 19.16 47.68 19.17 47.84 19.2 48.01 19.24 48.19 19.29 48.36 19.35 48.52 19.43 48.69 19.52 48.84 19.63 48.98 19.75 49.1 19.88 49.21 20.02 49.29 20.18 49.35 20.35 49.39 20.54 49.39 20.75 49.36 20.96 49.36 20.96 49.43 20.98 49.43 20.98 49.43 20.98"/>
      <polygon class="cls-4" points="48.85 23.91 48.85 23.91 49.43 20.98 49.36 20.96 48.78 23.89 48.78 23.89 48.85 23.91 48.85 23.91 48.85 23.91"/>
      <polygon class="cls-2" points="47.47 22.45 47.46 22.42 47.44 22.39 47.4 22.37 47.34 22.36 47.28 22.35 47.21 22.35 47.13 22.35 47.04 22.35 46.95 22.36 46.86 22.37 46.78 22.39 46.69 22.4 46.61 22.41 46.54 22.42 46.47 22.44 46.41 22.45 46.37 22.46 46.33 22.47 46.27 22.49 46.21 22.51 46.14 22.55 46.07 22.58 45.99 22.62 45.92 22.67 45.85 22.72 45.78 22.78 45.72 22.84 45.65 22.91 45.6 22.99 45.56 23.07 45.53 23.16 45.52 23.26 45.51 23.45 45.54 23.6 45.58 23.71 45.65 23.79 45.73 23.85 45.83 23.88 45.92 23.89 46.02 23.9 46.18 23.89 46.34 23.88 46.48 23.85 46.61 23.81 46.73 23.77 46.84 23.72 46.94 23.66 47.02 23.6 47.1 23.54 47.17 23.46 47.23 23.4 47.28 23.32 47.32 23.26 47.35 23.19 47.37 23.12 47.39 23.06 47.41 22.91 47.44 22.75 47.46 22.59 47.47 22.45 47.47 22.45 47.47 22.45"/>
      <polygon class="cls-4" points="58.91 24.37 58.92 24.25 58.96 24.09 59.04 23.96 59.13 23.85 59.25 23.75 59.38 23.68 59.53 23.64 59.68 23.62 59.84 23.64 59.98 23.68 60.12 23.75 60.23 23.85 60.33 23.96 60.41 24.09 60.45 24.25 60.46 24.37 60.3 24.37 60.29 24.27 60.26 24.15 60.2 24.04 60.13 23.95 60.04 23.87 59.93 23.81 59.81 23.77 59.68 23.76 59.56 23.77 59.44 23.81 59.33 23.87 59.24 23.95 59.17 24.04 59.11 24.15 59.08 24.27 59.07 24.37 58.91 24.37 58.91 24.37 58.91 24.37"/>
      <polygon class="cls-4" points="59.41 24.37 59.41 24.04 59.71 24.04 59.78 24.05 59.84 24.06 59.88 24.07 59.92 24.09 59.95 24.13 59.97 24.16 59.98 24.2 59.99 24.24 59.98 24.29 59.97 24.33 59.96 24.36 59.95 24.37 59.71 24.37 59.73 24.37 59.77 24.36 59.81 24.35 59.83 24.34 59.86 24.32 59.87 24.31 59.88 24.28 59.88 24.24 59.87 24.21 59.86 24.19 59.84 24.18 59.83 24.17 59.8 24.16 59.77 24.16 59.75 24.16 59.71 24.16 59.55 24.16 59.55 24.37 59.41 24.37 59.41 24.37 59.41 24.37"/>
      <polygon class="cls-4" points="58.91 24.37 58.9 24.41 58.92 24.57 58.96 24.72 59.04 24.85 59.13 24.96 59.25 25.06 59.38 25.13 59.53 25.17 59.68 25.19 59.84 25.17 59.98 25.13 60.12 25.06 60.23 24.96 60.33 24.85 60.41 24.72 60.45 24.57 60.47 24.41 60.46 24.37 60.3 24.37 60.3 24.41 60.29 24.54 60.26 24.66 60.2 24.77 60.13 24.86 60.04 24.94 59.93 25 59.81 25.04 59.68 25.05 59.56 25.04 59.44 25 59.33 24.94 59.24 24.86 59.17 24.77 59.11 24.66 59.08 24.54 59.07 24.41 59.07 24.37 58.91 24.37 58.91 24.37 58.91 24.37"/>
      <polygon class="cls-4" points="59.41 24.37 59.41 24.71 59.55 24.71 59.55 24.43 59.68 24.43 59.85 24.71 59.96 24.71 59.8 24.43 59.83 24.43 59.87 24.42 59.91 24.41 59.93 24.39 59.95 24.37 59.71 24.37 59.68 24.38 59.55 24.38 59.55 24.37 59.41 24.37 59.41 24.37 59.41 24.37"/>
      <path class="cls-5" d="M58.9,24.41h0l0-.16,0-.15L59,24l.09-.12.12-.09.13-.07.14,0,.16,0h0l.16,0,.14,0,.13.07.12.09.09.12.08.13,0,.15,0,.16h0l0,.16,0,.15-.08.13-.09.11-.12.09-.13.07-.14,0-.16,0h0l-.16,0-.14,0-.13-.07L59.13,25,59,24.85,59,24.72l0-.15,0-.16m.64.31h-.14V24h.43l0,0,0,0,0,0,0,0v.08h0v.09l0,0,0,0,0,0H59.8l.17.28h-.11l-.17-.28h-.14v.28m.14-.33h.15l0,0v-.08h0v0h-.32v.22h.14m0,.67h.13l.12,0,.11-.06.09-.08.07-.09.06-.11,0-.12v-.13h0v-.13l0-.12L60.2,24l-.07-.09L60,23.87l-.11-.06-.12,0h-.26l-.12,0-.11.06-.09.08-.07.09-.06.11,0,.12v.13h0v.13l0,.12.06.11.07.09.09.08.11.06.12,0h.13"/>
      <polygon class="cls-4" points="49.23 25.13 50.8 25.13 50.8 25.13 51.36 21.97 51.38 21.85 51.41 21.73 51.45 21.61 51.49 21.49 51.55 21.36 51.61 21.25 51.68 21.14 51.77 21.03 51.87 20.94 51.98 20.85 52.11 20.76 52.26 20.7 52.42 20.64 52.59 20.6 52.79 20.56 53.01 20.55 53.08 20.55 53.13 20.55 53.14 20.55 53.14 20.55 53.39 19.13 53.24 19.14 53.09 19.15 52.95 19.18 52.82 19.22 52.69 19.27 52.58 19.32 52.47 19.38 52.36 19.45 52.26 19.53 52.17 19.6 52.08 19.69 51.99 19.78 51.91 19.88 51.82 19.98 51.74 20.08 51.66 20.19 51.83 19.19 50.27 19.19 49.23 25.13 49.23 25.13 49.23 25.13 49.23 25.13"/>
      <polyline class="cls-5" points="49.23 25.13 50.8 25.13 50.8 25.13 51.36 21.97 51.36 21.97 51.38 21.85 51.41 21.73 51.45 21.61 51.49 21.49 51.55 21.36 51.61 21.25 51.68 21.14 51.77 21.03 51.87 20.94 51.98 20.85 52.11 20.76 52.26 20.7 52.42 20.64 52.59 20.6 52.79 20.56 53.01 20.55 53.01 20.55 53.08 20.55 53.13 20.55 53.14 20.55 53.14 20.55 53.39 19.13 53.39 19.13 53.24 19.14 53.09 19.15 52.95 19.18 52.82 19.22 52.69 19.27 52.58 19.32 52.47 19.38 52.36 19.45 52.26 19.53 52.17 19.6 52.08 19.69 51.99 19.78 51.91 19.88 51.82 19.98 51.74 20.08 51.66 20.19 51.83 19.19 50.27 19.19 49.23 25.13 49.23 25.13"/>
      <polygon class="cls-4" points="34.53 25.13 36.09 25.13 36.12 25.13 36.65 21.97 36.68 21.85 36.7 21.74 36.73 21.62 36.77 21.51 36.81 21.4 36.87 21.29 36.94 21.19 37.02 21.1 37.1 21.01 37.2 20.93 37.33 20.86 37.46 20.8 37.61 20.75 37.79 20.71 37.98 20.68 38.19 20.66 38.21 20.66 38.23 20.67 38.26 20.68 38.29 20.68 38.31 20.68 38.34 20.69 38.35 20.69 38.36 20.69 38.36 20.67 38.38 20.6 38.4 20.5 38.43 20.38 38.47 20.24 38.51 20.08 38.56 19.93 38.61 19.77 38.65 19.66 38.71 19.56 38.76 19.45 38.82 19.36 38.87 19.28 38.91 19.21 38.94 19.17 38.95 19.15 38.94 19.15 38.92 19.15 38.89 19.14 38.85 19.14 38.81 19.14 38.77 19.13 38.73 19.13 38.69 19.13 38.52 19.14 38.36 19.15 38.22 19.18 38.09 19.21 37.96 19.26 37.84 19.32 37.74 19.37 37.64 19.44 37.54 19.51 37.45 19.59 37.37 19.68 37.29 19.77 37.2 19.86 37.13 19.97 37.04 20.08 36.96 20.19 37.16 19.19 35.57 19.19 34.53 25.13 34.53 25.13 34.53 25.13 34.53 25.13"/>
      <polyline class="cls-5" points="34.53 25.13 36.09 25.13 36.12 25.13 36.65 21.97 36.65 21.97 36.68 21.85 36.7 21.74 36.73 21.62 36.77 21.51 36.81 21.4 36.87 21.29 36.94 21.19 37.02 21.1 37.1 21.01 37.2 20.93 37.33 20.86 37.46 20.8 37.61 20.75 37.79 20.71 37.98 20.68 38.19 20.66 38.19 20.66 38.21 20.66 38.23 20.67 38.26 20.68 38.29 20.68 38.31 20.68 38.34 20.69 38.35 20.69 38.36 20.69 38.36 20.69 38.36 20.67 38.38 20.6 38.4 20.5 38.43 20.38 38.47 20.24 38.51 20.08 38.56 19.93 38.61 19.77 38.61 19.77 38.65 19.66 38.71 19.56 38.76 19.45 38.82 19.36 38.87 19.28 38.91 19.21 38.94 19.17 38.95 19.15 38.95 19.15 38.94 19.15 38.92 19.15 38.89 19.14 38.85 19.14 38.81 19.14 38.77 19.13 38.73 19.13 38.69 19.13 38.69 19.13 38.52 19.14 38.36 19.15 38.22 19.18 38.09 19.21 37.96 19.26 37.84 19.32 37.74 19.37 37.64 19.44 37.54 19.51 37.45 19.59 37.37 19.68 37.29 19.77 37.2 19.86 37.13 19.97 37.04 20.08 36.96 20.19 37.16 19.19 35.57 19.19 34.53 25.13 34.53 25.13"/>
      <polygon class="cls-2" points="58.9 31.1 58.92 30.98 59.08 30.98 59.08 30.98 59.07 31.1 58.9 31.1 58.9 31.1 58.9 31.1"/>
    </g>
  </g>
</svg>
