<?xml version="1.0" encoding="utf-8"?>
<!-- Generator: Adobe Illustrator 22.0.1, SVG Export Plug-In . SVG Version: 6.00 Build 0)  -->
<svg version="1.2" baseProfile="tiny" id="Layer_1" xmlns="http://www.w3.org/2000/svg" xmlns:xlink="http://www.w3.org/1999/xlink"
	 x="0px" y="0px" viewBox="0 0 68 68" xml:space="preserve">
<rect fill="#FF806C" width="68" height="68"/>
<g>
	
		<path vector-effect="non-scaling-stroke" fill="#FF806C" stroke="#23232D" stroke-width="2" stroke-linecap="round" stroke-miterlimit="10" d="
		M37,44c0,1.6-1.3,3-3,3c-1.6,0-3-1.3-3-3"/>
	<g>
		
			<path vector-effect="non-scaling-stroke" fill="#FF806C" stroke="#23232D" stroke-width="2" stroke-linecap="round" stroke-miterlimit="10" d="
			M44.8,43.5C44.8,43.5,44.8,43.5,44.8,43.5C43.2,42.6,42,41,42,39l0,0v-7c0-4.4-3.6-8-8-8s-8,3.6-8,8v7l0,0c0,1.9-1.1,3.6-2.8,4.4
			c0,0,0,0,0,0c-0.1,0-0.2,0.1-0.2,0.2c0,0.1,0.1,0.3,0.3,0.3H26h8h8h2.6c0.1,0,0.3-0.1,0.3-0.3C44.9,43.6,44.9,43.5,44.8,43.5z"/>
		
			<line vector-effect="non-scaling-stroke" fill="#FF806C" stroke="#23232D" stroke-width="2" stroke-linecap="round" stroke-miterlimit="10" x1="34" y1="24" x2="34" y2="21.1"/>
	</g>
</g>
</svg>
