<?xml version="1.0" encoding="utf-8"?>
<!-- Generator: Adobe Illustrator 17.0.0, SVG Export Plug-In . SVG Version: 6.00 Build 0)  -->
<svg version="1.2" baseProfile="tiny" id="Layer_1" xmlns="http://www.w3.org/2000/svg" xmlns:xlink="http://www.w3.org/1999/xlink"
	 x="0px" y="0px" width="68px" height="68px" viewBox="0 0 68 68" xml:space="preserve">
<g>
	<path fill="none" vector-effect="non-scaling-stroke" stroke="#ABABAF" stroke-width="2" stroke-linecap="round" stroke-linejoin="round" stroke-miterlimit="10" d="
		M36.985,43.967c0,1.641-1.336,2.971-2.985,2.971c-1.649,0-2.985-1.33-2.985-2.971"/>
	<g>
		<path fill="none" vector-effect="non-scaling-stroke" stroke="#ABABAF" stroke-width="2" stroke-linecap="round" stroke-linejoin="round" stroke-miterlimit="10" d="
			M44.782,43.451c-0.001-0.001-0.002-0.001-0.004-0.002c-1.626-0.807-2.745-2.477-2.75-4.407h0v-7.031
			c0-4.413-3.594-7.99-8.028-7.99s-8.028,3.577-8.028,7.99v7.031h0c-0.005,1.931-1.124,3.6-2.75,4.407
			c-0.001,0.001-0.002,0.001-0.004,0.002c-0.095,0.042-0.162,0.136-0.162,0.247c0,0.149,0.121,0.269,0.271,0.269h2.645H34h8.028
			h2.645c0.149,0,0.271-0.121,0.271-0.269C44.944,43.587,44.878,43.493,44.782,43.451z"/>
		
			<line fill="none" vector-effect="non-scaling-stroke" stroke="#ABABAF" stroke-width="2" stroke-linecap="round" stroke-linejoin="round" stroke-miterlimit="10" x1="34" y1="23.996" x2="34" y2="21.062"/>
	</g>
</g>
</svg>
