<svg id="Слой_1" data-name="Слой 1" xmlns="http://www.w3.org/2000/svg" viewBox="0 0 68 42">
  <defs>
    <style>
      .cls-1 {
        fill: #f5f5f0;
      }

      .cls-2 {
        fill: #005098;
      }

      .cls-3 {
        fill: #f6a500;
      }
    </style>
  </defs>
  <title>visa</title>
  <g>
    <rect class="cls-1" width="68" height="42" rx="3" ry="3"/>
    <g>
      <polygon class="cls-2" points="25.88 29.19 28.66 12.85 33.11 12.85 30.33 29.19 25.88 29.19"/>
      <path class="cls-2" d="M46.48,13.25a11.5,11.5,0,0,0-4-.69c-4.4,0-7.5,2.22-7.53,5.39,0,2.35,2.21,3.66,3.9,4.44s2.32,1.31,2.31,2c0,1.1-1.38,1.6-2.66,1.6a9.33,9.33,0,0,1-4.19-.86l-.57-.26-.62,3.66a14.1,14.1,0,0,0,5,.87c4.68,0,7.72-2.19,7.75-5.58,0-1.86-1.17-3.27-3.74-4.44-1.56-.76-2.51-1.26-2.5-2S40.4,16,42.14,16a8.21,8.21,0,0,1,3.33.63l.4.19.6-3.54"/>
      <path class="cls-2" d="M57.9,12.87H54.46a2.22,2.22,0,0,0-2.33,1.35l-6.61,15h4.68s.76-2,.94-2.46h5.7c.13.57.54,2.45.54,2.45H61.5L57.9,12.87M52.4,23.4l1.77-4.57s.37-.95.59-1.56l.3,1.41,1,4.72Z"/>
      <path class="cls-2" d="M22.14,12.86,17.78,24l-.46-2.26a12.75,12.75,0,0,0-6.17-6.85l4,14.29h4.71l7-16.31H22.14"/>
      <path class="cls-3" d="M13.74,12.85H6.56l-.06.34c5.59,1.35,9.28,4.62,10.82,8.55l-1.56-7.51a1.86,1.86,0,0,0-2-1.38"/>
    </g>
  </g>
</svg>
