<?xml version="1.0" encoding="utf-8"?>
<!-- Generator: Adobe Illustrator 19.2.1, SVG Export Plug-In . SVG Version: 6.00 Build 0)  -->
<svg version="1.2" baseProfile="tiny" id="Слой_1"
	 xmlns="http://www.w3.org/2000/svg"  x="0px" y="0px" viewBox="0 0 91 91"
	 xml:space="preserve">
<path fill="#FFFFFF" d="M744.5-2289c23.4,0,42.5,19.1,42.5,42.5s-19.1,42.5-42.5,42.5s-42.5-19.1-42.5-42.5S721.1-2289,744.5-2289
	 M744.5-2291c-24.6,0-44.5,19.9-44.5,44.5s19.9,44.5,44.5,44.5c24.6,0,44.5-19.9,44.5-44.5S769.1-2291,744.5-2291L744.5-2291z"/>
<g>

		<line fill="none" stroke="#FFFFFF" stroke-width="3" stroke-linecap="round" stroke-linejoin="round" stroke-miterlimit="10" x1="732.5" y1="-2258.5" x2="756.5" y2="-2234.5"/>

		<line fill="none" stroke="#FFFFFF" stroke-width="3" stroke-linecap="round" stroke-linejoin="round" stroke-miterlimit="10" x1="756.5" y1="-2258.5" x2="732.5" y2="-2234.5"/>
</g>
<path fill="#FFFFFF" d="M744.5-2289c23.4,0,42.5,19.1,42.5,42.5s-19.1,42.5-42.5,42.5s-42.5-19.1-42.5-42.5S721.1-2289,744.5-2289
	 M744.5-2291c-24.6,0-44.5,19.9-44.5,44.5s19.9,44.5,44.5,44.5c24.6,0,44.5-19.9,44.5-44.5S769.1-2291,744.5-2291L744.5-2291z"/>
<g>

		<line fill="none" stroke="#FFFFFF" stroke-width="3" stroke-linecap="round" stroke-linejoin="round" stroke-miterlimit="10" x1="732.5" y1="-2258.5" x2="756.5" y2="-2234.5"/>

		<line fill="none" stroke="#FFFFFF" stroke-width="3" stroke-linecap="round" stroke-linejoin="round" stroke-miterlimit="10" x1="756.5" y1="-2258.5" x2="732.5" y2="-2234.5"/>
</g>
<path fill="#FFFFFF" d="M45.5,3C68.9,3,88,22.1,88,45.5S68.9,88,45.5,88S3,68.9,3,45.5S22.1,3,45.5,3 M45.5,1C20.9,1,1,20.9,1,45.5
	C1,70.1,20.9,90,45.5,90S90,70.1,90,45.5C90,20.9,70.1,1,45.5,1L45.5,1z"/>
<g>

		<line fill="none" stroke="#FFFFFF" stroke-width="5" stroke-linecap="round" stroke-linejoin="round" stroke-miterlimit="10" x1="33.5" y1="33.5" x2="57.5" y2="57.5"/>

		<line fill="none" stroke="#FFFFFF" stroke-width="5" stroke-linecap="round" stroke-linejoin="round" stroke-miterlimit="10" x1="57.5" y1="33.5" x2="33.5" y2="57.5"/>
</g>
</svg>
