<?xml version="1.0" encoding="utf-8"?>
<!-- Generator: Adobe Illustrator 22.0.0, SVG Export Plug-In . SVG Version: 6.00 Build 0)  -->
<svg version="1.2" baseProfile="tiny" id="Слой_1"
	 xmlns="http://www.w3.org/2000/svg" xmlns:xlink="http://www.w3.org/1999/xlink" x="0px" y="0px" viewBox="0 0 68 68"
	 xml:space="preserve">
<circle fill="#FFFFFF" cx="34" cy="34" r="34"/>
<path fill="none" vector-effect="non-scaling-stroke" stroke="#23232D" stroke-width="2" stroke-linecap="round" stroke-linejoin="round" stroke-miterlimit="10" d="
	M48.3,28.1c-0.7-1.9-2.2-3.4-4.3-4.4c-1.8-0.9-3.8-1-5.5-0.4c-1.8,0.5-3.4,1.9-4.5,3.6c-1.1-1.6-2.7-3.1-4.5-3.6
	c-1.8-0.5-3.7-0.4-5.5,0.4c-2.1,1-3.5,2.5-4.3,4.4c-0.7,1.9-0.7,4,0.2,6.1c1.6,3.7,12.8,14.3,12.8,14.3c0.3,0.3,0.8,0.5,1.3,0.5
	c0.5,0,0.9-0.2,1.2-0.4c0,0,11.3-10.6,12.9-14.3C49,32.1,49,30,48.3,28.1z"/>
</svg>
